M48
; DRILL file {KiCad 8.0.8-unknown-202501290020~8b811aa383~ubuntu24.04.1} date 2025-03-07T17:37:30-0500
; FORMAT={-:-/ absolute / inch / decimal}
; #@! TF.CreationDate,2025-03-07T17:37:30-05:00
; #@! TF.GenerationSoftware,Kicad,Pcbnew,8.0.8-unknown-202501290020~8b811aa383~ubuntu24.04.1
; #@! TF.FileFunction,Plated,1,2,PTH
FMAT,2
INCH
; #@! TA.AperFunction,Plated,PTH,ComponentDrill
T1C0.0295
; #@! TA.AperFunction,Plated,PTH,ComponentDrill
T2C0.0354
; #@! TA.AperFunction,Plated,PTH,ComponentDrill
T3C0.0394
; #@! TA.AperFunction,Plated,PTH,ComponentDrill
T4C0.0400
%
G90
G05
T1
X5.9949Y-3.2134
X6.0449Y-3.2134
X6.0949Y-3.2134
T2
X5.3476Y-2.9516
X5.3713Y-3.2665
X5.4445Y-4.0411
X5.4445Y-4.1411
X5.4445Y-4.2411
X5.4445Y-4.3411
X5.4445Y-4.4411
X5.4445Y-4.5411
X5.4445Y-4.6411
X5.4445Y-4.7411
X5.4713Y-3.2665
X5.5713Y-3.2665
X5.6713Y-3.2665
X5.7713Y-3.2665
X5.7807Y-2.9516
T3
X4.8582Y-3.5039
X4.8582Y-3.6039
X4.8582Y-3.7039
X4.8582Y-3.8039
X6.2213Y-4.2787
X6.2213Y-4.4165
T4
X4.9319Y-4.0472
X4.9319Y-4.1472
X5.0319Y-4.0472
X5.0319Y-4.1472
X5.1319Y-4.0472
X5.1319Y-4.1472
X5.2319Y-4.0472
X5.2319Y-4.1472
M30
