%TF.GenerationSoftware,KiCad,Pcbnew,8.0.8-unknown-202501290020~8b811aa383~ubuntu24.04.1*%
%TF.CreationDate,2025-03-07T17:37:34-05:00*%
%TF.ProjectId,Acceleration Logger,41636365-6c65-4726-9174-696f6e204c6f,rev?*%
%TF.SameCoordinates,Original*%
%TF.FileFunction,Copper,L2,Bot*%
%TF.FilePolarity,Positive*%
%FSLAX46Y46*%
G04 Gerber Fmt 4.6, Leading zero omitted, Abs format (unit mm)*
G04 Created by KiCad (PCBNEW 8.0.8-unknown-202501290020~8b811aa383~ubuntu24.04.1) date 2025-03-07 17:37:34*
%MOMM*%
%LPD*%
G01*
G04 APERTURE LIST*
%TA.AperFunction,ComponentPad*%
%ADD10C,1.524000*%
%TD*%
%TA.AperFunction,ComponentPad*%
%ADD11R,2.000000X1.600000*%
%TD*%
%TA.AperFunction,ComponentPad*%
%ADD12O,2.000000X1.600000*%
%TD*%
%TA.AperFunction,ComponentPad*%
%ADD13R,1.524000X1.524000*%
%TD*%
%TA.AperFunction,ComponentPad*%
%ADD14R,1.727200X1.727200*%
%TD*%
%TA.AperFunction,ComponentPad*%
%ADD15O,1.727200X1.727200*%
%TD*%
%TA.AperFunction,ComponentPad*%
%ADD16R,1.050000X1.500000*%
%TD*%
%TA.AperFunction,ComponentPad*%
%ADD17O,1.050000X1.500000*%
%TD*%
%TA.AperFunction,Conductor*%
%ADD18C,0.200000*%
%TD*%
G04 APERTURE END LIST*
D10*
%TO.P,J2,1,VBus*%
%TO.N,/+5V*%
X136430000Y-82970000D03*
%TO.P,J2,2,D-*%
%TO.N,unconnected-(J2-D--Pad2)*%
X138970000Y-82970000D03*
%TO.P,J2,3,D+*%
%TO.N,unconnected-(J2-D+-Pad3)*%
X141510000Y-82970000D03*
%TO.P,J2,4,ID*%
%TO.N,unconnected-(J2-ID-Pad4)*%
X144050000Y-82970000D03*
%TO.P,J2,5,Gnd*%
%TO.N,Earth*%
X146590000Y-82970000D03*
%TO.P,J2,6*%
%TO.N,N/C*%
X146830000Y-74970000D03*
%TO.P,J2,7*%
X135830000Y-74970000D03*
%TD*%
D11*
%TO.P,DISP1,1,Gnd*%
%TO.N,Earth*%
X123397500Y-96620000D03*
D12*
%TO.P,DISP1,2,Vcc*%
%TO.N,+3V3*%
X123397500Y-94080000D03*
%TO.P,DISP1,3,SCL*%
%TO.N,Net-(DISP1-SCL)*%
X123397500Y-91540000D03*
%TO.P,DISP1,4,SDA*%
%TO.N,Net-(DISP1-SDA)*%
X123397500Y-89000000D03*
%TD*%
D13*
%TO.P,U2,1,Vcc*%
%TO.N,+3V3*%
X138290000Y-102645000D03*
D10*
%TO.P,U2,2,Gnd*%
%TO.N,Earth*%
X138290000Y-105185000D03*
%TO.P,U2,3,SCL*%
%TO.N,Net-(DISP1-SCL)*%
X138290000Y-107725000D03*
%TO.P,U2,4,SDA*%
%TO.N,Net-(DISP1-SDA)*%
X138290000Y-110265000D03*
%TO.P,U2,5,XDA*%
%TO.N,unconnected-(U2-XDA-Pad5)*%
X138290000Y-112805000D03*
%TO.P,U2,6,XCL*%
%TO.N,unconnected-(U2-XCL-Pad6)*%
X138290000Y-115345000D03*
%TO.P,U2,7,AD0*%
%TO.N,unconnected-(U2-AD0-Pad7)*%
X138290000Y-117885000D03*
%TO.P,U2,8,INT*%
%TO.N,Net-(U1-U0TXD{slash}GPIO1)*%
X138290000Y-120425000D03*
%TD*%
D14*
%TO.P,U1,1,GND*%
%TO.N,Earth*%
X132890000Y-105340000D03*
D15*
%TO.P,U1,2,U0TXD/GPIO1*%
%TO.N,Net-(U1-U0TXD{slash}GPIO1)*%
X132890000Y-102800000D03*
%TO.P,U1,3,U1TXD/GPIO2*%
%TO.N,Net-(DISP1-SCL)*%
X130350000Y-105340000D03*
%TO.P,U1,4,CH_EN/CH_PD*%
%TO.N,unconnected-(U1-CH_EN{slash}CH_PD-Pad4)*%
X130350000Y-102800000D03*
%TO.P,U1,5,GPIO0*%
%TO.N,Net-(DISP1-SDA)*%
X127810000Y-105340000D03*
%TO.P,U1,6,RST*%
%TO.N,unconnected-(U1-RST-Pad6)*%
X127810000Y-102800000D03*
%TO.P,U1,7,GPIO3/U0RXD*%
%TO.N,Net-(D1-A)*%
X125270000Y-105340000D03*
%TO.P,U1,8,VCC*%
%TO.N,+3V3*%
X125270000Y-102800000D03*
%TD*%
D16*
%TO.P,U3,1,GND*%
%TO.N,Earth*%
X154810000Y-81620000D03*
D17*
%TO.P,U3,2,VI*%
%TO.N,/+5V*%
X153540000Y-81620000D03*
%TO.P,U3,3,VO*%
%TO.N,+3V3*%
X152270000Y-81620000D03*
%TD*%
D13*
%TO.P,J1,1,Pin_1*%
%TO.N,+3V3*%
X158020000Y-112180000D03*
D10*
%TO.P,J1,2,Pin_2*%
%TO.N,Net-(J1-Pin_2)*%
X158020000Y-108680000D03*
%TD*%
D18*
%TO.N,Earth*%
X146590000Y-82970000D02*
X148710000Y-85090000D01*
X148710000Y-85090000D02*
X153310000Y-85090000D01*
X153310000Y-85090000D02*
X154810000Y-83590000D01*
X154810000Y-83590000D02*
X154810000Y-81620000D01*
%TO.N,/+5V*%
X136430000Y-82970000D02*
X139070356Y-80329644D01*
X139070356Y-80329644D02*
X152749644Y-80329644D01*
X152749644Y-80329644D02*
X153540000Y-81120000D01*
X153540000Y-81120000D02*
X153540000Y-81620000D01*
%TO.N,Net-(DISP1-SCL)*%
X129186400Y-93836400D02*
X126890000Y-91540000D01*
X126890000Y-91540000D02*
X123397500Y-91540000D01*
X130350000Y-105340000D02*
X129186400Y-104176400D01*
X129186400Y-104176400D02*
X129186400Y-93836400D01*
%TO.N,Net-(DISP1-SDA)*%
X121580000Y-90630000D02*
X121590000Y-90630000D01*
X121580000Y-100755579D02*
X121580000Y-90630000D01*
X127810000Y-105340000D02*
X126646400Y-104176400D01*
X123220000Y-89000000D02*
X123397500Y-89000000D01*
X121590000Y-90630000D02*
X123220000Y-89000000D01*
X126646400Y-104176400D02*
X125000821Y-104176400D01*
X125000821Y-104176400D02*
X121580000Y-100755579D01*
%TO.N,+3V3*%
X138290000Y-102645000D02*
X146555000Y-110910000D01*
X146555000Y-110910000D02*
X155460000Y-110910000D01*
X155460000Y-110910000D02*
X156730000Y-112180000D01*
X156730000Y-112180000D02*
X158020000Y-112180000D01*
%TO.N,Net-(U1-U0TXD{slash}GPIO1)*%
X132890000Y-102800000D02*
X135310000Y-105220000D01*
X135310000Y-105220000D02*
X135310000Y-117445000D01*
X135310000Y-117445000D02*
X138290000Y-120425000D01*
%TD*%
M02*
