%TF.GenerationSoftware,KiCad,Pcbnew,8.0.9-unknown-202502181922~c4009544a9~ubuntu24.04.1*%
%TF.CreationDate,2025-04-06T14:19:14-04:00*%
%TF.ProjectId,Acceleration Logger,41636365-6c65-4726-9174-696f6e204c6f,rev?*%
%TF.SameCoordinates,Original*%
%TF.FileFunction,Legend,Top*%
%TF.FilePolarity,Positive*%
%FSLAX46Y46*%
G04 Gerber Fmt 4.6, Leading zero omitted, Abs format (unit mm)*
G04 Created by KiCad (PCBNEW 8.0.9-unknown-202502181922~c4009544a9~ubuntu24.04.1) date 2025-04-06 14:19:14*
%MOMM*%
%LPD*%
G01*
G04 APERTURE LIST*
%ADD10C,0.200000*%
%ADD11C,0.100000*%
%ADD12C,0.150000*%
%ADD13C,0.120000*%
%ADD14C,0.254000*%
%ADD15C,0.152400*%
G04 APERTURE END LIST*
D10*
X161679673Y-108566266D02*
X162441578Y-108566266D01*
X161679673Y-112154600D02*
X162441578Y-112154600D01*
X162060625Y-112726028D02*
X162060625Y-111583171D01*
X153248720Y-108664600D02*
X154391578Y-108664600D01*
X153298720Y-112174600D02*
X154441578Y-112174600D01*
X153870149Y-112746028D02*
X153870149Y-111603171D01*
D11*
X142810000Y-122970000D02*
X141390000Y-122970000D01*
X142510000Y-122440000D02*
X142510000Y-123400000D01*
X142480000Y-122980000D02*
X141730000Y-123450000D01*
X141730000Y-122490000D01*
X142480000Y-122980000D01*
G36*
X142480000Y-122980000D02*
G01*
X141730000Y-123450000D01*
X141730000Y-122490000D01*
X142480000Y-122980000D01*
G37*
X135797217Y-84448728D02*
X135725789Y-84413014D01*
X135725789Y-84413014D02*
X135618646Y-84413014D01*
X135618646Y-84413014D02*
X135511503Y-84448728D01*
X135511503Y-84448728D02*
X135440074Y-84520157D01*
X135440074Y-84520157D02*
X135404360Y-84591585D01*
X135404360Y-84591585D02*
X135368646Y-84734442D01*
X135368646Y-84734442D02*
X135368646Y-84841585D01*
X135368646Y-84841585D02*
X135404360Y-84984442D01*
X135404360Y-84984442D02*
X135440074Y-85055871D01*
X135440074Y-85055871D02*
X135511503Y-85127300D01*
X135511503Y-85127300D02*
X135618646Y-85163014D01*
X135618646Y-85163014D02*
X135690074Y-85163014D01*
X135690074Y-85163014D02*
X135797217Y-85127300D01*
X135797217Y-85127300D02*
X135832931Y-85091585D01*
X135832931Y-85091585D02*
X135832931Y-84841585D01*
X135832931Y-84841585D02*
X135690074Y-84841585D01*
X136154360Y-84663014D02*
X136154360Y-85163014D01*
X136154360Y-84734442D02*
X136190074Y-84698728D01*
X136190074Y-84698728D02*
X136261503Y-84663014D01*
X136261503Y-84663014D02*
X136368646Y-84663014D01*
X136368646Y-84663014D02*
X136440074Y-84698728D01*
X136440074Y-84698728D02*
X136475789Y-84770157D01*
X136475789Y-84770157D02*
X136475789Y-85163014D01*
X137154360Y-85163014D02*
X137154360Y-84413014D01*
X137154360Y-85127300D02*
X137082931Y-85163014D01*
X137082931Y-85163014D02*
X136940074Y-85163014D01*
X136940074Y-85163014D02*
X136868645Y-85127300D01*
X136868645Y-85127300D02*
X136832931Y-85091585D01*
X136832931Y-85091585D02*
X136797217Y-85020157D01*
X136797217Y-85020157D02*
X136797217Y-84805871D01*
X136797217Y-84805871D02*
X136832931Y-84734442D01*
X136832931Y-84734442D02*
X136868645Y-84698728D01*
X136868645Y-84698728D02*
X136940074Y-84663014D01*
X136940074Y-84663014D02*
X137082931Y-84663014D01*
X137082931Y-84663014D02*
X137154360Y-84698728D01*
X145254360Y-84937300D02*
X145825789Y-84937300D01*
X145540074Y-85223014D02*
X145540074Y-84651585D01*
X146540074Y-84473014D02*
X146182931Y-84473014D01*
X146182931Y-84473014D02*
X146147217Y-84830157D01*
X146147217Y-84830157D02*
X146182931Y-84794442D01*
X146182931Y-84794442D02*
X146254360Y-84758728D01*
X146254360Y-84758728D02*
X146432931Y-84758728D01*
X146432931Y-84758728D02*
X146504360Y-84794442D01*
X146504360Y-84794442D02*
X146540074Y-84830157D01*
X146540074Y-84830157D02*
X146575788Y-84901585D01*
X146575788Y-84901585D02*
X146575788Y-85080157D01*
X146575788Y-85080157D02*
X146540074Y-85151585D01*
X146540074Y-85151585D02*
X146504360Y-85187300D01*
X146504360Y-85187300D02*
X146432931Y-85223014D01*
X146432931Y-85223014D02*
X146254360Y-85223014D01*
X146254360Y-85223014D02*
X146182931Y-85187300D01*
X146182931Y-85187300D02*
X146147217Y-85151585D01*
X146790074Y-84473014D02*
X147040074Y-85223014D01*
X147040074Y-85223014D02*
X147290074Y-84473014D01*
X125256816Y-84343734D02*
X125256816Y-83867544D01*
X125542531Y-84438972D02*
X124542531Y-84105639D01*
X124542531Y-84105639D02*
X125542531Y-83772306D01*
X125494912Y-83010401D02*
X125542531Y-83105639D01*
X125542531Y-83105639D02*
X125542531Y-83296115D01*
X125542531Y-83296115D02*
X125494912Y-83391353D01*
X125494912Y-83391353D02*
X125447292Y-83438972D01*
X125447292Y-83438972D02*
X125352054Y-83486591D01*
X125352054Y-83486591D02*
X125066340Y-83486591D01*
X125066340Y-83486591D02*
X124971102Y-83438972D01*
X124971102Y-83438972D02*
X124923483Y-83391353D01*
X124923483Y-83391353D02*
X124875864Y-83296115D01*
X124875864Y-83296115D02*
X124875864Y-83105639D01*
X124875864Y-83105639D02*
X124923483Y-83010401D01*
X125494912Y-82153258D02*
X125542531Y-82248496D01*
X125542531Y-82248496D02*
X125542531Y-82438972D01*
X125542531Y-82438972D02*
X125494912Y-82534210D01*
X125494912Y-82534210D02*
X125447292Y-82581829D01*
X125447292Y-82581829D02*
X125352054Y-82629448D01*
X125352054Y-82629448D02*
X125066340Y-82629448D01*
X125066340Y-82629448D02*
X124971102Y-82581829D01*
X124971102Y-82581829D02*
X124923483Y-82534210D01*
X124923483Y-82534210D02*
X124875864Y-82438972D01*
X124875864Y-82438972D02*
X124875864Y-82248496D01*
X124875864Y-82248496D02*
X124923483Y-82153258D01*
X125494912Y-81343734D02*
X125542531Y-81438972D01*
X125542531Y-81438972D02*
X125542531Y-81629448D01*
X125542531Y-81629448D02*
X125494912Y-81724686D01*
X125494912Y-81724686D02*
X125399673Y-81772305D01*
X125399673Y-81772305D02*
X125018721Y-81772305D01*
X125018721Y-81772305D02*
X124923483Y-81724686D01*
X124923483Y-81724686D02*
X124875864Y-81629448D01*
X124875864Y-81629448D02*
X124875864Y-81438972D01*
X124875864Y-81438972D02*
X124923483Y-81343734D01*
X124923483Y-81343734D02*
X125018721Y-81296115D01*
X125018721Y-81296115D02*
X125113959Y-81296115D01*
X125113959Y-81296115D02*
X125209197Y-81772305D01*
X125542531Y-80724686D02*
X125494912Y-80819924D01*
X125494912Y-80819924D02*
X125399673Y-80867543D01*
X125399673Y-80867543D02*
X124542531Y-80867543D01*
X125494912Y-79962781D02*
X125542531Y-80058019D01*
X125542531Y-80058019D02*
X125542531Y-80248495D01*
X125542531Y-80248495D02*
X125494912Y-80343733D01*
X125494912Y-80343733D02*
X125399673Y-80391352D01*
X125399673Y-80391352D02*
X125018721Y-80391352D01*
X125018721Y-80391352D02*
X124923483Y-80343733D01*
X124923483Y-80343733D02*
X124875864Y-80248495D01*
X124875864Y-80248495D02*
X124875864Y-80058019D01*
X124875864Y-80058019D02*
X124923483Y-79962781D01*
X124923483Y-79962781D02*
X125018721Y-79915162D01*
X125018721Y-79915162D02*
X125113959Y-79915162D01*
X125113959Y-79915162D02*
X125209197Y-80391352D01*
X125542531Y-79486590D02*
X124875864Y-79486590D01*
X125066340Y-79486590D02*
X124971102Y-79438971D01*
X124971102Y-79438971D02*
X124923483Y-79391352D01*
X124923483Y-79391352D02*
X124875864Y-79296114D01*
X124875864Y-79296114D02*
X124875864Y-79200876D01*
X125542531Y-78438971D02*
X125018721Y-78438971D01*
X125018721Y-78438971D02*
X124923483Y-78486590D01*
X124923483Y-78486590D02*
X124875864Y-78581828D01*
X124875864Y-78581828D02*
X124875864Y-78772304D01*
X124875864Y-78772304D02*
X124923483Y-78867542D01*
X125494912Y-78438971D02*
X125542531Y-78534209D01*
X125542531Y-78534209D02*
X125542531Y-78772304D01*
X125542531Y-78772304D02*
X125494912Y-78867542D01*
X125494912Y-78867542D02*
X125399673Y-78915161D01*
X125399673Y-78915161D02*
X125304435Y-78915161D01*
X125304435Y-78915161D02*
X125209197Y-78867542D01*
X125209197Y-78867542D02*
X125161578Y-78772304D01*
X125161578Y-78772304D02*
X125161578Y-78534209D01*
X125161578Y-78534209D02*
X125113959Y-78438971D01*
X124875864Y-78105637D02*
X124875864Y-77724685D01*
X124542531Y-77962780D02*
X125399673Y-77962780D01*
X125399673Y-77962780D02*
X125494912Y-77915161D01*
X125494912Y-77915161D02*
X125542531Y-77819923D01*
X125542531Y-77819923D02*
X125542531Y-77724685D01*
X125542531Y-77391351D02*
X124875864Y-77391351D01*
X124542531Y-77391351D02*
X124590150Y-77438970D01*
X124590150Y-77438970D02*
X124637769Y-77391351D01*
X124637769Y-77391351D02*
X124590150Y-77343732D01*
X124590150Y-77343732D02*
X124542531Y-77391351D01*
X124542531Y-77391351D02*
X124637769Y-77391351D01*
X125542531Y-76772304D02*
X125494912Y-76867542D01*
X125494912Y-76867542D02*
X125447292Y-76915161D01*
X125447292Y-76915161D02*
X125352054Y-76962780D01*
X125352054Y-76962780D02*
X125066340Y-76962780D01*
X125066340Y-76962780D02*
X124971102Y-76915161D01*
X124971102Y-76915161D02*
X124923483Y-76867542D01*
X124923483Y-76867542D02*
X124875864Y-76772304D01*
X124875864Y-76772304D02*
X124875864Y-76629447D01*
X124875864Y-76629447D02*
X124923483Y-76534209D01*
X124923483Y-76534209D02*
X124971102Y-76486590D01*
X124971102Y-76486590D02*
X125066340Y-76438971D01*
X125066340Y-76438971D02*
X125352054Y-76438971D01*
X125352054Y-76438971D02*
X125447292Y-76486590D01*
X125447292Y-76486590D02*
X125494912Y-76534209D01*
X125494912Y-76534209D02*
X125542531Y-76629447D01*
X125542531Y-76629447D02*
X125542531Y-76772304D01*
X124875864Y-76010399D02*
X125542531Y-76010399D01*
X124971102Y-76010399D02*
X124923483Y-75962780D01*
X124923483Y-75962780D02*
X124875864Y-75867542D01*
X124875864Y-75867542D02*
X124875864Y-75724685D01*
X124875864Y-75724685D02*
X124923483Y-75629447D01*
X124923483Y-75629447D02*
X125018721Y-75581828D01*
X125018721Y-75581828D02*
X125542531Y-75581828D01*
X125542531Y-73867542D02*
X125542531Y-74343732D01*
X125542531Y-74343732D02*
X124542531Y-74343732D01*
X125542531Y-73391351D02*
X125494912Y-73486589D01*
X125494912Y-73486589D02*
X125447292Y-73534208D01*
X125447292Y-73534208D02*
X125352054Y-73581827D01*
X125352054Y-73581827D02*
X125066340Y-73581827D01*
X125066340Y-73581827D02*
X124971102Y-73534208D01*
X124971102Y-73534208D02*
X124923483Y-73486589D01*
X124923483Y-73486589D02*
X124875864Y-73391351D01*
X124875864Y-73391351D02*
X124875864Y-73248494D01*
X124875864Y-73248494D02*
X124923483Y-73153256D01*
X124923483Y-73153256D02*
X124971102Y-73105637D01*
X124971102Y-73105637D02*
X125066340Y-73058018D01*
X125066340Y-73058018D02*
X125352054Y-73058018D01*
X125352054Y-73058018D02*
X125447292Y-73105637D01*
X125447292Y-73105637D02*
X125494912Y-73153256D01*
X125494912Y-73153256D02*
X125542531Y-73248494D01*
X125542531Y-73248494D02*
X125542531Y-73391351D01*
X124875864Y-72200875D02*
X125685388Y-72200875D01*
X125685388Y-72200875D02*
X125780626Y-72248494D01*
X125780626Y-72248494D02*
X125828245Y-72296113D01*
X125828245Y-72296113D02*
X125875864Y-72391351D01*
X125875864Y-72391351D02*
X125875864Y-72534208D01*
X125875864Y-72534208D02*
X125828245Y-72629446D01*
X125494912Y-72200875D02*
X125542531Y-72296113D01*
X125542531Y-72296113D02*
X125542531Y-72486589D01*
X125542531Y-72486589D02*
X125494912Y-72581827D01*
X125494912Y-72581827D02*
X125447292Y-72629446D01*
X125447292Y-72629446D02*
X125352054Y-72677065D01*
X125352054Y-72677065D02*
X125066340Y-72677065D01*
X125066340Y-72677065D02*
X124971102Y-72629446D01*
X124971102Y-72629446D02*
X124923483Y-72581827D01*
X124923483Y-72581827D02*
X124875864Y-72486589D01*
X124875864Y-72486589D02*
X124875864Y-72296113D01*
X124875864Y-72296113D02*
X124923483Y-72200875D01*
X124875864Y-71296113D02*
X125685388Y-71296113D01*
X125685388Y-71296113D02*
X125780626Y-71343732D01*
X125780626Y-71343732D02*
X125828245Y-71391351D01*
X125828245Y-71391351D02*
X125875864Y-71486589D01*
X125875864Y-71486589D02*
X125875864Y-71629446D01*
X125875864Y-71629446D02*
X125828245Y-71724684D01*
X125494912Y-71296113D02*
X125542531Y-71391351D01*
X125542531Y-71391351D02*
X125542531Y-71581827D01*
X125542531Y-71581827D02*
X125494912Y-71677065D01*
X125494912Y-71677065D02*
X125447292Y-71724684D01*
X125447292Y-71724684D02*
X125352054Y-71772303D01*
X125352054Y-71772303D02*
X125066340Y-71772303D01*
X125066340Y-71772303D02*
X124971102Y-71724684D01*
X124971102Y-71724684D02*
X124923483Y-71677065D01*
X124923483Y-71677065D02*
X124875864Y-71581827D01*
X124875864Y-71581827D02*
X124875864Y-71391351D01*
X124875864Y-71391351D02*
X124923483Y-71296113D01*
X125494912Y-70438970D02*
X125542531Y-70534208D01*
X125542531Y-70534208D02*
X125542531Y-70724684D01*
X125542531Y-70724684D02*
X125494912Y-70819922D01*
X125494912Y-70819922D02*
X125399673Y-70867541D01*
X125399673Y-70867541D02*
X125018721Y-70867541D01*
X125018721Y-70867541D02*
X124923483Y-70819922D01*
X124923483Y-70819922D02*
X124875864Y-70724684D01*
X124875864Y-70724684D02*
X124875864Y-70534208D01*
X124875864Y-70534208D02*
X124923483Y-70438970D01*
X124923483Y-70438970D02*
X125018721Y-70391351D01*
X125018721Y-70391351D02*
X125113959Y-70391351D01*
X125113959Y-70391351D02*
X125209197Y-70867541D01*
X125542531Y-69962779D02*
X124875864Y-69962779D01*
X125066340Y-69962779D02*
X124971102Y-69915160D01*
X124971102Y-69915160D02*
X124923483Y-69867541D01*
X124923483Y-69867541D02*
X124875864Y-69772303D01*
X124875864Y-69772303D02*
X124875864Y-69677065D01*
X126152475Y-84438972D02*
X127152475Y-84105639D01*
X127152475Y-84105639D02*
X126152475Y-83772306D01*
X127104856Y-83058020D02*
X127152475Y-83153258D01*
X127152475Y-83153258D02*
X127152475Y-83343734D01*
X127152475Y-83343734D02*
X127104856Y-83438972D01*
X127104856Y-83438972D02*
X127009617Y-83486591D01*
X127009617Y-83486591D02*
X126628665Y-83486591D01*
X126628665Y-83486591D02*
X126533427Y-83438972D01*
X126533427Y-83438972D02*
X126485808Y-83343734D01*
X126485808Y-83343734D02*
X126485808Y-83153258D01*
X126485808Y-83153258D02*
X126533427Y-83058020D01*
X126533427Y-83058020D02*
X126628665Y-83010401D01*
X126628665Y-83010401D02*
X126723903Y-83010401D01*
X126723903Y-83010401D02*
X126819141Y-83486591D01*
X127152475Y-82581829D02*
X126485808Y-82581829D01*
X126676284Y-82581829D02*
X126581046Y-82534210D01*
X126581046Y-82534210D02*
X126533427Y-82486591D01*
X126533427Y-82486591D02*
X126485808Y-82391353D01*
X126485808Y-82391353D02*
X126485808Y-82296115D01*
X126152475Y-81010400D02*
X126152475Y-80915162D01*
X126152475Y-80915162D02*
X126200094Y-80819924D01*
X126200094Y-80819924D02*
X126247713Y-80772305D01*
X126247713Y-80772305D02*
X126342951Y-80724686D01*
X126342951Y-80724686D02*
X126533427Y-80677067D01*
X126533427Y-80677067D02*
X126771522Y-80677067D01*
X126771522Y-80677067D02*
X126961998Y-80724686D01*
X126961998Y-80724686D02*
X127057236Y-80772305D01*
X127057236Y-80772305D02*
X127104856Y-80819924D01*
X127104856Y-80819924D02*
X127152475Y-80915162D01*
X127152475Y-80915162D02*
X127152475Y-81010400D01*
X127152475Y-81010400D02*
X127104856Y-81105638D01*
X127104856Y-81105638D02*
X127057236Y-81153257D01*
X127057236Y-81153257D02*
X126961998Y-81200876D01*
X126961998Y-81200876D02*
X126771522Y-81248495D01*
X126771522Y-81248495D02*
X126533427Y-81248495D01*
X126533427Y-81248495D02*
X126342951Y-81200876D01*
X126342951Y-81200876D02*
X126247713Y-81153257D01*
X126247713Y-81153257D02*
X126200094Y-81105638D01*
X126200094Y-81105638D02*
X126152475Y-81010400D01*
X127057236Y-80248495D02*
X127104856Y-80200876D01*
X127104856Y-80200876D02*
X127152475Y-80248495D01*
X127152475Y-80248495D02*
X127104856Y-80296114D01*
X127104856Y-80296114D02*
X127057236Y-80248495D01*
X127057236Y-80248495D02*
X127152475Y-80248495D01*
X127152475Y-79248496D02*
X127152475Y-79819924D01*
X127152475Y-79534210D02*
X126152475Y-79534210D01*
X126152475Y-79534210D02*
X126295332Y-79629448D01*
X126295332Y-79629448D02*
X126390570Y-79724686D01*
X126390570Y-79724686D02*
X126438189Y-79819924D01*
X127057236Y-78819924D02*
X127104856Y-78772305D01*
X127104856Y-78772305D02*
X127152475Y-78819924D01*
X127152475Y-78819924D02*
X127104856Y-78867543D01*
X127104856Y-78867543D02*
X127057236Y-78819924D01*
X127057236Y-78819924D02*
X127152475Y-78819924D01*
X126152475Y-78153258D02*
X126152475Y-78058020D01*
X126152475Y-78058020D02*
X126200094Y-77962782D01*
X126200094Y-77962782D02*
X126247713Y-77915163D01*
X126247713Y-77915163D02*
X126342951Y-77867544D01*
X126342951Y-77867544D02*
X126533427Y-77819925D01*
X126533427Y-77819925D02*
X126771522Y-77819925D01*
X126771522Y-77819925D02*
X126961998Y-77867544D01*
X126961998Y-77867544D02*
X127057236Y-77915163D01*
X127057236Y-77915163D02*
X127104856Y-77962782D01*
X127104856Y-77962782D02*
X127152475Y-78058020D01*
X127152475Y-78058020D02*
X127152475Y-78153258D01*
X127152475Y-78153258D02*
X127104856Y-78248496D01*
X127104856Y-78248496D02*
X127057236Y-78296115D01*
X127057236Y-78296115D02*
X126961998Y-78343734D01*
X126961998Y-78343734D02*
X126771522Y-78391353D01*
X126771522Y-78391353D02*
X126533427Y-78391353D01*
X126533427Y-78391353D02*
X126342951Y-78343734D01*
X126342951Y-78343734D02*
X126247713Y-78296115D01*
X126247713Y-78296115D02*
X126200094Y-78248496D01*
X126200094Y-78248496D02*
X126152475Y-78153258D01*
X126485808Y-74677067D02*
X127152475Y-74677067D01*
X126104856Y-74915162D02*
X126819141Y-75153257D01*
X126819141Y-75153257D02*
X126819141Y-74534210D01*
X126104856Y-73438972D02*
X127390570Y-74296114D01*
X126152475Y-73200876D02*
X126152475Y-72534210D01*
X126152475Y-72534210D02*
X127152475Y-72962781D01*
X126104856Y-71438972D02*
X127390570Y-72296114D01*
X126247713Y-71153257D02*
X126200094Y-71105638D01*
X126200094Y-71105638D02*
X126152475Y-71010400D01*
X126152475Y-71010400D02*
X126152475Y-70772305D01*
X126152475Y-70772305D02*
X126200094Y-70677067D01*
X126200094Y-70677067D02*
X126247713Y-70629448D01*
X126247713Y-70629448D02*
X126342951Y-70581829D01*
X126342951Y-70581829D02*
X126438189Y-70581829D01*
X126438189Y-70581829D02*
X126581046Y-70629448D01*
X126581046Y-70629448D02*
X127152475Y-71200876D01*
X127152475Y-71200876D02*
X127152475Y-70581829D01*
X126152475Y-69677067D02*
X126152475Y-70153257D01*
X126152475Y-70153257D02*
X126628665Y-70200876D01*
X126628665Y-70200876D02*
X126581046Y-70153257D01*
X126581046Y-70153257D02*
X126533427Y-70058019D01*
X126533427Y-70058019D02*
X126533427Y-69819924D01*
X126533427Y-69819924D02*
X126581046Y-69724686D01*
X126581046Y-69724686D02*
X126628665Y-69677067D01*
X126628665Y-69677067D02*
X126723903Y-69629448D01*
X126723903Y-69629448D02*
X126961998Y-69629448D01*
X126961998Y-69629448D02*
X127057236Y-69677067D01*
X127057236Y-69677067D02*
X127104856Y-69724686D01*
X127104856Y-69724686D02*
X127152475Y-69819924D01*
X127152475Y-69819924D02*
X127152475Y-70058019D01*
X127152475Y-70058019D02*
X127104856Y-70153257D01*
X127104856Y-70153257D02*
X127057236Y-70200876D01*
X128762419Y-84296115D02*
X127762419Y-84296115D01*
X127762419Y-84296115D02*
X127762419Y-84058020D01*
X127762419Y-84058020D02*
X127810038Y-83915163D01*
X127810038Y-83915163D02*
X127905276Y-83819925D01*
X127905276Y-83819925D02*
X128000514Y-83772306D01*
X128000514Y-83772306D02*
X128190990Y-83724687D01*
X128190990Y-83724687D02*
X128333847Y-83724687D01*
X128333847Y-83724687D02*
X128524323Y-83772306D01*
X128524323Y-83772306D02*
X128619561Y-83819925D01*
X128619561Y-83819925D02*
X128714800Y-83915163D01*
X128714800Y-83915163D02*
X128762419Y-84058020D01*
X128762419Y-84058020D02*
X128762419Y-84296115D01*
X128762419Y-82867544D02*
X128238609Y-82867544D01*
X128238609Y-82867544D02*
X128143371Y-82915163D01*
X128143371Y-82915163D02*
X128095752Y-83010401D01*
X128095752Y-83010401D02*
X128095752Y-83200877D01*
X128095752Y-83200877D02*
X128143371Y-83296115D01*
X128714800Y-82867544D02*
X128762419Y-82962782D01*
X128762419Y-82962782D02*
X128762419Y-83200877D01*
X128762419Y-83200877D02*
X128714800Y-83296115D01*
X128714800Y-83296115D02*
X128619561Y-83343734D01*
X128619561Y-83343734D02*
X128524323Y-83343734D01*
X128524323Y-83343734D02*
X128429085Y-83296115D01*
X128429085Y-83296115D02*
X128381466Y-83200877D01*
X128381466Y-83200877D02*
X128381466Y-82962782D01*
X128381466Y-82962782D02*
X128333847Y-82867544D01*
X128095752Y-82486591D02*
X128762419Y-82248496D01*
X128762419Y-82248496D02*
X128095752Y-82010401D01*
X128762419Y-81629448D02*
X128095752Y-81629448D01*
X127762419Y-81629448D02*
X127810038Y-81677067D01*
X127810038Y-81677067D02*
X127857657Y-81629448D01*
X127857657Y-81629448D02*
X127810038Y-81581829D01*
X127810038Y-81581829D02*
X127762419Y-81629448D01*
X127762419Y-81629448D02*
X127857657Y-81629448D01*
X128762419Y-80724687D02*
X127762419Y-80724687D01*
X128714800Y-80724687D02*
X128762419Y-80819925D01*
X128762419Y-80819925D02*
X128762419Y-81010401D01*
X128762419Y-81010401D02*
X128714800Y-81105639D01*
X128714800Y-81105639D02*
X128667180Y-81153258D01*
X128667180Y-81153258D02*
X128571942Y-81200877D01*
X128571942Y-81200877D02*
X128286228Y-81200877D01*
X128286228Y-81200877D02*
X128190990Y-81153258D01*
X128190990Y-81153258D02*
X128143371Y-81105639D01*
X128143371Y-81105639D02*
X128095752Y-81010401D01*
X128095752Y-81010401D02*
X128095752Y-80819925D01*
X128095752Y-80819925D02*
X128143371Y-80724687D01*
X128238609Y-79486591D02*
X128238609Y-79153258D01*
X128762419Y-79010401D02*
X128762419Y-79486591D01*
X128762419Y-79486591D02*
X127762419Y-79486591D01*
X127762419Y-79486591D02*
X127762419Y-79010401D01*
X128667180Y-78581829D02*
X128714800Y-78534210D01*
X128714800Y-78534210D02*
X128762419Y-78581829D01*
X128762419Y-78581829D02*
X128714800Y-78629448D01*
X128714800Y-78629448D02*
X128667180Y-78581829D01*
X128667180Y-78581829D02*
X128762419Y-78581829D01*
X128762419Y-77343734D02*
X127762419Y-77343734D01*
X127762419Y-77343734D02*
X127762419Y-76962782D01*
X127762419Y-76962782D02*
X127810038Y-76867544D01*
X127810038Y-76867544D02*
X127857657Y-76819925D01*
X127857657Y-76819925D02*
X127952895Y-76772306D01*
X127952895Y-76772306D02*
X128095752Y-76772306D01*
X128095752Y-76772306D02*
X128190990Y-76819925D01*
X128190990Y-76819925D02*
X128238609Y-76867544D01*
X128238609Y-76867544D02*
X128286228Y-76962782D01*
X128286228Y-76962782D02*
X128286228Y-77343734D01*
X128762419Y-76200877D02*
X128714800Y-76296115D01*
X128714800Y-76296115D02*
X128667180Y-76343734D01*
X128667180Y-76343734D02*
X128571942Y-76391353D01*
X128571942Y-76391353D02*
X128286228Y-76391353D01*
X128286228Y-76391353D02*
X128190990Y-76343734D01*
X128190990Y-76343734D02*
X128143371Y-76296115D01*
X128143371Y-76296115D02*
X128095752Y-76200877D01*
X128095752Y-76200877D02*
X128095752Y-76058020D01*
X128095752Y-76058020D02*
X128143371Y-75962782D01*
X128143371Y-75962782D02*
X128190990Y-75915163D01*
X128190990Y-75915163D02*
X128286228Y-75867544D01*
X128286228Y-75867544D02*
X128571942Y-75867544D01*
X128571942Y-75867544D02*
X128667180Y-75915163D01*
X128667180Y-75915163D02*
X128714800Y-75962782D01*
X128714800Y-75962782D02*
X128762419Y-76058020D01*
X128762419Y-76058020D02*
X128762419Y-76200877D01*
X128095752Y-75534210D02*
X128762419Y-75343734D01*
X128762419Y-75343734D02*
X128286228Y-75153258D01*
X128286228Y-75153258D02*
X128762419Y-74962782D01*
X128762419Y-74962782D02*
X128095752Y-74772306D01*
X128714800Y-74010401D02*
X128762419Y-74105639D01*
X128762419Y-74105639D02*
X128762419Y-74296115D01*
X128762419Y-74296115D02*
X128714800Y-74391353D01*
X128714800Y-74391353D02*
X128619561Y-74438972D01*
X128619561Y-74438972D02*
X128238609Y-74438972D01*
X128238609Y-74438972D02*
X128143371Y-74391353D01*
X128143371Y-74391353D02*
X128095752Y-74296115D01*
X128095752Y-74296115D02*
X128095752Y-74105639D01*
X128095752Y-74105639D02*
X128143371Y-74010401D01*
X128143371Y-74010401D02*
X128238609Y-73962782D01*
X128238609Y-73962782D02*
X128333847Y-73962782D01*
X128333847Y-73962782D02*
X128429085Y-74438972D01*
X128762419Y-73391353D02*
X128714800Y-73486591D01*
X128714800Y-73486591D02*
X128619561Y-73534210D01*
X128619561Y-73534210D02*
X127762419Y-73534210D01*
X128762419Y-72867543D02*
X128714800Y-72962781D01*
X128714800Y-72962781D02*
X128619561Y-73010400D01*
X128619561Y-73010400D02*
X127762419Y-73010400D01*
D12*
X154383333Y-119834819D02*
X154050000Y-119358628D01*
X153811905Y-119834819D02*
X153811905Y-118834819D01*
X153811905Y-118834819D02*
X154192857Y-118834819D01*
X154192857Y-118834819D02*
X154288095Y-118882438D01*
X154288095Y-118882438D02*
X154335714Y-118930057D01*
X154335714Y-118930057D02*
X154383333Y-119025295D01*
X154383333Y-119025295D02*
X154383333Y-119168152D01*
X154383333Y-119168152D02*
X154335714Y-119263390D01*
X154335714Y-119263390D02*
X154288095Y-119311009D01*
X154288095Y-119311009D02*
X154192857Y-119358628D01*
X154192857Y-119358628D02*
X153811905Y-119358628D01*
X154764286Y-118930057D02*
X154811905Y-118882438D01*
X154811905Y-118882438D02*
X154907143Y-118834819D01*
X154907143Y-118834819D02*
X155145238Y-118834819D01*
X155145238Y-118834819D02*
X155240476Y-118882438D01*
X155240476Y-118882438D02*
X155288095Y-118930057D01*
X155288095Y-118930057D02*
X155335714Y-119025295D01*
X155335714Y-119025295D02*
X155335714Y-119120533D01*
X155335714Y-119120533D02*
X155288095Y-119263390D01*
X155288095Y-119263390D02*
X154716667Y-119834819D01*
X154716667Y-119834819D02*
X155335714Y-119834819D01*
X157803333Y-85899580D02*
X157755714Y-85947200D01*
X157755714Y-85947200D02*
X157612857Y-85994819D01*
X157612857Y-85994819D02*
X157517619Y-85994819D01*
X157517619Y-85994819D02*
X157374762Y-85947200D01*
X157374762Y-85947200D02*
X157279524Y-85851961D01*
X157279524Y-85851961D02*
X157231905Y-85756723D01*
X157231905Y-85756723D02*
X157184286Y-85566247D01*
X157184286Y-85566247D02*
X157184286Y-85423390D01*
X157184286Y-85423390D02*
X157231905Y-85232914D01*
X157231905Y-85232914D02*
X157279524Y-85137676D01*
X157279524Y-85137676D02*
X157374762Y-85042438D01*
X157374762Y-85042438D02*
X157517619Y-84994819D01*
X157517619Y-84994819D02*
X157612857Y-84994819D01*
X157612857Y-84994819D02*
X157755714Y-85042438D01*
X157755714Y-85042438D02*
X157803333Y-85090057D01*
X158755714Y-85994819D02*
X158184286Y-85994819D01*
X158470000Y-85994819D02*
X158470000Y-84994819D01*
X158470000Y-84994819D02*
X158374762Y-85137676D01*
X158374762Y-85137676D02*
X158279524Y-85232914D01*
X158279524Y-85232914D02*
X158184286Y-85280533D01*
X156203333Y-76849580D02*
X156155714Y-76897200D01*
X156155714Y-76897200D02*
X156012857Y-76944819D01*
X156012857Y-76944819D02*
X155917619Y-76944819D01*
X155917619Y-76944819D02*
X155774762Y-76897200D01*
X155774762Y-76897200D02*
X155679524Y-76801961D01*
X155679524Y-76801961D02*
X155631905Y-76706723D01*
X155631905Y-76706723D02*
X155584286Y-76516247D01*
X155584286Y-76516247D02*
X155584286Y-76373390D01*
X155584286Y-76373390D02*
X155631905Y-76182914D01*
X155631905Y-76182914D02*
X155679524Y-76087676D01*
X155679524Y-76087676D02*
X155774762Y-75992438D01*
X155774762Y-75992438D02*
X155917619Y-75944819D01*
X155917619Y-75944819D02*
X156012857Y-75944819D01*
X156012857Y-75944819D02*
X156155714Y-75992438D01*
X156155714Y-75992438D02*
X156203333Y-76040057D01*
X156584286Y-76040057D02*
X156631905Y-75992438D01*
X156631905Y-75992438D02*
X156727143Y-75944819D01*
X156727143Y-75944819D02*
X156965238Y-75944819D01*
X156965238Y-75944819D02*
X157060476Y-75992438D01*
X157060476Y-75992438D02*
X157108095Y-76040057D01*
X157108095Y-76040057D02*
X157155714Y-76135295D01*
X157155714Y-76135295D02*
X157155714Y-76230533D01*
X157155714Y-76230533D02*
X157108095Y-76373390D01*
X157108095Y-76373390D02*
X156536667Y-76944819D01*
X156536667Y-76944819D02*
X157155714Y-76944819D01*
X139027619Y-86364819D02*
X139027619Y-85364819D01*
X139027619Y-85364819D02*
X139265714Y-85364819D01*
X139265714Y-85364819D02*
X139408571Y-85412438D01*
X139408571Y-85412438D02*
X139503809Y-85507676D01*
X139503809Y-85507676D02*
X139551428Y-85602914D01*
X139551428Y-85602914D02*
X139599047Y-85793390D01*
X139599047Y-85793390D02*
X139599047Y-85936247D01*
X139599047Y-85936247D02*
X139551428Y-86126723D01*
X139551428Y-86126723D02*
X139503809Y-86221961D01*
X139503809Y-86221961D02*
X139408571Y-86317200D01*
X139408571Y-86317200D02*
X139265714Y-86364819D01*
X139265714Y-86364819D02*
X139027619Y-86364819D01*
X140027619Y-86364819D02*
X140027619Y-85364819D01*
X140456190Y-86317200D02*
X140599047Y-86364819D01*
X140599047Y-86364819D02*
X140837142Y-86364819D01*
X140837142Y-86364819D02*
X140932380Y-86317200D01*
X140932380Y-86317200D02*
X140979999Y-86269580D01*
X140979999Y-86269580D02*
X141027618Y-86174342D01*
X141027618Y-86174342D02*
X141027618Y-86079104D01*
X141027618Y-86079104D02*
X140979999Y-85983866D01*
X140979999Y-85983866D02*
X140932380Y-85936247D01*
X140932380Y-85936247D02*
X140837142Y-85888628D01*
X140837142Y-85888628D02*
X140646666Y-85841009D01*
X140646666Y-85841009D02*
X140551428Y-85793390D01*
X140551428Y-85793390D02*
X140503809Y-85745771D01*
X140503809Y-85745771D02*
X140456190Y-85650533D01*
X140456190Y-85650533D02*
X140456190Y-85555295D01*
X140456190Y-85555295D02*
X140503809Y-85460057D01*
X140503809Y-85460057D02*
X140551428Y-85412438D01*
X140551428Y-85412438D02*
X140646666Y-85364819D01*
X140646666Y-85364819D02*
X140884761Y-85364819D01*
X140884761Y-85364819D02*
X141027618Y-85412438D01*
X141456190Y-86364819D02*
X141456190Y-85364819D01*
X141456190Y-85364819D02*
X141837142Y-85364819D01*
X141837142Y-85364819D02*
X141932380Y-85412438D01*
X141932380Y-85412438D02*
X141979999Y-85460057D01*
X141979999Y-85460057D02*
X142027618Y-85555295D01*
X142027618Y-85555295D02*
X142027618Y-85698152D01*
X142027618Y-85698152D02*
X141979999Y-85793390D01*
X141979999Y-85793390D02*
X141932380Y-85841009D01*
X141932380Y-85841009D02*
X141837142Y-85888628D01*
X141837142Y-85888628D02*
X141456190Y-85888628D01*
X142979999Y-86364819D02*
X142408571Y-86364819D01*
X142694285Y-86364819D02*
X142694285Y-85364819D01*
X142694285Y-85364819D02*
X142599047Y-85507676D01*
X142599047Y-85507676D02*
X142503809Y-85602914D01*
X142503809Y-85602914D02*
X142408571Y-85650533D01*
X135571556Y-92899419D02*
X135000128Y-92899419D01*
X135285842Y-92899419D02*
X135285842Y-91899419D01*
X135285842Y-91899419D02*
X135190604Y-92042276D01*
X135190604Y-92042276D02*
X135095366Y-92137514D01*
X135095366Y-92137514D02*
X135000128Y-92185133D01*
X135952509Y-91994657D02*
X136000128Y-91947038D01*
X136000128Y-91947038D02*
X136095366Y-91899419D01*
X136095366Y-91899419D02*
X136333461Y-91899419D01*
X136333461Y-91899419D02*
X136428699Y-91947038D01*
X136428699Y-91947038D02*
X136476318Y-91994657D01*
X136476318Y-91994657D02*
X136523937Y-92089895D01*
X136523937Y-92089895D02*
X136523937Y-92185133D01*
X136523937Y-92185133D02*
X136476318Y-92327990D01*
X136476318Y-92327990D02*
X135904890Y-92899419D01*
X135904890Y-92899419D02*
X136523937Y-92899419D01*
X137095366Y-92327990D02*
X137000128Y-92280371D01*
X137000128Y-92280371D02*
X136952509Y-92232752D01*
X136952509Y-92232752D02*
X136904890Y-92137514D01*
X136904890Y-92137514D02*
X136904890Y-92089895D01*
X136904890Y-92089895D02*
X136952509Y-91994657D01*
X136952509Y-91994657D02*
X137000128Y-91947038D01*
X137000128Y-91947038D02*
X137095366Y-91899419D01*
X137095366Y-91899419D02*
X137285842Y-91899419D01*
X137285842Y-91899419D02*
X137381080Y-91947038D01*
X137381080Y-91947038D02*
X137428699Y-91994657D01*
X137428699Y-91994657D02*
X137476318Y-92089895D01*
X137476318Y-92089895D02*
X137476318Y-92137514D01*
X137476318Y-92137514D02*
X137428699Y-92232752D01*
X137428699Y-92232752D02*
X137381080Y-92280371D01*
X137381080Y-92280371D02*
X137285842Y-92327990D01*
X137285842Y-92327990D02*
X137095366Y-92327990D01*
X137095366Y-92327990D02*
X137000128Y-92375609D01*
X137000128Y-92375609D02*
X136952509Y-92423228D01*
X136952509Y-92423228D02*
X136904890Y-92518466D01*
X136904890Y-92518466D02*
X136904890Y-92708942D01*
X136904890Y-92708942D02*
X136952509Y-92804180D01*
X136952509Y-92804180D02*
X137000128Y-92851800D01*
X137000128Y-92851800D02*
X137095366Y-92899419D01*
X137095366Y-92899419D02*
X137285842Y-92899419D01*
X137285842Y-92899419D02*
X137381080Y-92851800D01*
X137381080Y-92851800D02*
X137428699Y-92804180D01*
X137428699Y-92804180D02*
X137476318Y-92708942D01*
X137476318Y-92708942D02*
X137476318Y-92518466D01*
X137476318Y-92518466D02*
X137428699Y-92423228D01*
X137428699Y-92423228D02*
X137381080Y-92375609D01*
X137381080Y-92375609D02*
X137285842Y-92327990D01*
X137809652Y-92899419D02*
X138333461Y-92232752D01*
X137809652Y-92232752D02*
X138333461Y-92899419D01*
X138619176Y-91899419D02*
X139238223Y-91899419D01*
X139238223Y-91899419D02*
X138904890Y-92280371D01*
X138904890Y-92280371D02*
X139047747Y-92280371D01*
X139047747Y-92280371D02*
X139142985Y-92327990D01*
X139142985Y-92327990D02*
X139190604Y-92375609D01*
X139190604Y-92375609D02*
X139238223Y-92470847D01*
X139238223Y-92470847D02*
X139238223Y-92708942D01*
X139238223Y-92708942D02*
X139190604Y-92804180D01*
X139190604Y-92804180D02*
X139142985Y-92851800D01*
X139142985Y-92851800D02*
X139047747Y-92899419D01*
X139047747Y-92899419D02*
X138762033Y-92899419D01*
X138762033Y-92899419D02*
X138666795Y-92851800D01*
X138666795Y-92851800D02*
X138619176Y-92804180D01*
X139619176Y-91994657D02*
X139666795Y-91947038D01*
X139666795Y-91947038D02*
X139762033Y-91899419D01*
X139762033Y-91899419D02*
X140000128Y-91899419D01*
X140000128Y-91899419D02*
X140095366Y-91947038D01*
X140095366Y-91947038D02*
X140142985Y-91994657D01*
X140142985Y-91994657D02*
X140190604Y-92089895D01*
X140190604Y-92089895D02*
X140190604Y-92185133D01*
X140190604Y-92185133D02*
X140142985Y-92327990D01*
X140142985Y-92327990D02*
X139571557Y-92899419D01*
X139571557Y-92899419D02*
X140190604Y-92899419D01*
X141571557Y-91899419D02*
X141762033Y-91899419D01*
X141762033Y-91899419D02*
X141857271Y-91947038D01*
X141857271Y-91947038D02*
X141952509Y-92042276D01*
X141952509Y-92042276D02*
X142000128Y-92232752D01*
X142000128Y-92232752D02*
X142000128Y-92566085D01*
X142000128Y-92566085D02*
X141952509Y-92756561D01*
X141952509Y-92756561D02*
X141857271Y-92851800D01*
X141857271Y-92851800D02*
X141762033Y-92899419D01*
X141762033Y-92899419D02*
X141571557Y-92899419D01*
X141571557Y-92899419D02*
X141476319Y-92851800D01*
X141476319Y-92851800D02*
X141381081Y-92756561D01*
X141381081Y-92756561D02*
X141333462Y-92566085D01*
X141333462Y-92566085D02*
X141333462Y-92232752D01*
X141333462Y-92232752D02*
X141381081Y-92042276D01*
X141381081Y-92042276D02*
X141476319Y-91947038D01*
X141476319Y-91947038D02*
X141571557Y-91899419D01*
X142904890Y-92899419D02*
X142428700Y-92899419D01*
X142428700Y-92899419D02*
X142428700Y-91899419D01*
X143238224Y-92375609D02*
X143571557Y-92375609D01*
X143714414Y-92899419D02*
X143238224Y-92899419D01*
X143238224Y-92899419D02*
X143238224Y-91899419D01*
X143238224Y-91899419D02*
X143714414Y-91899419D01*
X144142986Y-92899419D02*
X144142986Y-91899419D01*
X144142986Y-91899419D02*
X144381081Y-91899419D01*
X144381081Y-91899419D02*
X144523938Y-91947038D01*
X144523938Y-91947038D02*
X144619176Y-92042276D01*
X144619176Y-92042276D02*
X144666795Y-92137514D01*
X144666795Y-92137514D02*
X144714414Y-92327990D01*
X144714414Y-92327990D02*
X144714414Y-92470847D01*
X144714414Y-92470847D02*
X144666795Y-92661323D01*
X144666795Y-92661323D02*
X144619176Y-92756561D01*
X144619176Y-92756561D02*
X144523938Y-92851800D01*
X144523938Y-92851800D02*
X144381081Y-92899419D01*
X144381081Y-92899419D02*
X144142986Y-92899419D01*
X145904891Y-92899419D02*
X145904891Y-91899419D01*
X145904891Y-91899419D02*
X146142986Y-91899419D01*
X146142986Y-91899419D02*
X146285843Y-91947038D01*
X146285843Y-91947038D02*
X146381081Y-92042276D01*
X146381081Y-92042276D02*
X146428700Y-92137514D01*
X146428700Y-92137514D02*
X146476319Y-92327990D01*
X146476319Y-92327990D02*
X146476319Y-92470847D01*
X146476319Y-92470847D02*
X146428700Y-92661323D01*
X146428700Y-92661323D02*
X146381081Y-92756561D01*
X146381081Y-92756561D02*
X146285843Y-92851800D01*
X146285843Y-92851800D02*
X146142986Y-92899419D01*
X146142986Y-92899419D02*
X145904891Y-92899419D01*
X146904891Y-92899419D02*
X146904891Y-92232752D01*
X146904891Y-91899419D02*
X146857272Y-91947038D01*
X146857272Y-91947038D02*
X146904891Y-91994657D01*
X146904891Y-91994657D02*
X146952510Y-91947038D01*
X146952510Y-91947038D02*
X146904891Y-91899419D01*
X146904891Y-91899419D02*
X146904891Y-91994657D01*
X147333462Y-92851800D02*
X147428700Y-92899419D01*
X147428700Y-92899419D02*
X147619176Y-92899419D01*
X147619176Y-92899419D02*
X147714414Y-92851800D01*
X147714414Y-92851800D02*
X147762033Y-92756561D01*
X147762033Y-92756561D02*
X147762033Y-92708942D01*
X147762033Y-92708942D02*
X147714414Y-92613704D01*
X147714414Y-92613704D02*
X147619176Y-92566085D01*
X147619176Y-92566085D02*
X147476319Y-92566085D01*
X147476319Y-92566085D02*
X147381081Y-92518466D01*
X147381081Y-92518466D02*
X147333462Y-92423228D01*
X147333462Y-92423228D02*
X147333462Y-92375609D01*
X147333462Y-92375609D02*
X147381081Y-92280371D01*
X147381081Y-92280371D02*
X147476319Y-92232752D01*
X147476319Y-92232752D02*
X147619176Y-92232752D01*
X147619176Y-92232752D02*
X147714414Y-92280371D01*
X148190605Y-92232752D02*
X148190605Y-93232752D01*
X148190605Y-92280371D02*
X148285843Y-92232752D01*
X148285843Y-92232752D02*
X148476319Y-92232752D01*
X148476319Y-92232752D02*
X148571557Y-92280371D01*
X148571557Y-92280371D02*
X148619176Y-92327990D01*
X148619176Y-92327990D02*
X148666795Y-92423228D01*
X148666795Y-92423228D02*
X148666795Y-92708942D01*
X148666795Y-92708942D02*
X148619176Y-92804180D01*
X148619176Y-92804180D02*
X148571557Y-92851800D01*
X148571557Y-92851800D02*
X148476319Y-92899419D01*
X148476319Y-92899419D02*
X148285843Y-92899419D01*
X148285843Y-92899419D02*
X148190605Y-92851800D01*
X149238224Y-92899419D02*
X149142986Y-92851800D01*
X149142986Y-92851800D02*
X149095367Y-92756561D01*
X149095367Y-92756561D02*
X149095367Y-91899419D01*
X150047748Y-92899419D02*
X150047748Y-92375609D01*
X150047748Y-92375609D02*
X150000129Y-92280371D01*
X150000129Y-92280371D02*
X149904891Y-92232752D01*
X149904891Y-92232752D02*
X149714415Y-92232752D01*
X149714415Y-92232752D02*
X149619177Y-92280371D01*
X150047748Y-92851800D02*
X149952510Y-92899419D01*
X149952510Y-92899419D02*
X149714415Y-92899419D01*
X149714415Y-92899419D02*
X149619177Y-92851800D01*
X149619177Y-92851800D02*
X149571558Y-92756561D01*
X149571558Y-92756561D02*
X149571558Y-92661323D01*
X149571558Y-92661323D02*
X149619177Y-92566085D01*
X149619177Y-92566085D02*
X149714415Y-92518466D01*
X149714415Y-92518466D02*
X149952510Y-92518466D01*
X149952510Y-92518466D02*
X150047748Y-92470847D01*
X150428701Y-92232752D02*
X150666796Y-92899419D01*
X150904891Y-92232752D02*
X150666796Y-92899419D01*
X150666796Y-92899419D02*
X150571558Y-93137514D01*
X150571558Y-93137514D02*
X150523939Y-93185133D01*
X150523939Y-93185133D02*
X150428701Y-93232752D01*
D11*
X150222580Y-69806666D02*
X149508295Y-69806666D01*
X149508295Y-69806666D02*
X149365438Y-69759047D01*
X149365438Y-69759047D02*
X149270200Y-69663809D01*
X149270200Y-69663809D02*
X149222580Y-69520952D01*
X149222580Y-69520952D02*
X149222580Y-69425714D01*
X150127342Y-70235238D02*
X150174961Y-70282857D01*
X150174961Y-70282857D02*
X150222580Y-70378095D01*
X150222580Y-70378095D02*
X150222580Y-70616190D01*
X150222580Y-70616190D02*
X150174961Y-70711428D01*
X150174961Y-70711428D02*
X150127342Y-70759047D01*
X150127342Y-70759047D02*
X150032104Y-70806666D01*
X150032104Y-70806666D02*
X149936866Y-70806666D01*
X149936866Y-70806666D02*
X149794009Y-70759047D01*
X149794009Y-70759047D02*
X149222580Y-70187619D01*
X149222580Y-70187619D02*
X149222580Y-70806666D01*
D12*
X154433333Y-123764819D02*
X154100000Y-123288628D01*
X153861905Y-123764819D02*
X153861905Y-122764819D01*
X153861905Y-122764819D02*
X154242857Y-122764819D01*
X154242857Y-122764819D02*
X154338095Y-122812438D01*
X154338095Y-122812438D02*
X154385714Y-122860057D01*
X154385714Y-122860057D02*
X154433333Y-122955295D01*
X154433333Y-122955295D02*
X154433333Y-123098152D01*
X154433333Y-123098152D02*
X154385714Y-123193390D01*
X154385714Y-123193390D02*
X154338095Y-123241009D01*
X154338095Y-123241009D02*
X154242857Y-123288628D01*
X154242857Y-123288628D02*
X153861905Y-123288628D01*
X155385714Y-123764819D02*
X154814286Y-123764819D01*
X155100000Y-123764819D02*
X155100000Y-122764819D01*
X155100000Y-122764819D02*
X155004762Y-122907676D01*
X155004762Y-122907676D02*
X154909524Y-123002914D01*
X154909524Y-123002914D02*
X154814286Y-123050533D01*
D11*
X144028095Y-99402419D02*
X144028095Y-100211942D01*
X144028095Y-100211942D02*
X144075714Y-100307180D01*
X144075714Y-100307180D02*
X144123333Y-100354800D01*
X144123333Y-100354800D02*
X144218571Y-100402419D01*
X144218571Y-100402419D02*
X144409047Y-100402419D01*
X144409047Y-100402419D02*
X144504285Y-100354800D01*
X144504285Y-100354800D02*
X144551904Y-100307180D01*
X144551904Y-100307180D02*
X144599523Y-100211942D01*
X144599523Y-100211942D02*
X144599523Y-99402419D01*
X145028095Y-99497657D02*
X145075714Y-99450038D01*
X145075714Y-99450038D02*
X145170952Y-99402419D01*
X145170952Y-99402419D02*
X145409047Y-99402419D01*
X145409047Y-99402419D02*
X145504285Y-99450038D01*
X145504285Y-99450038D02*
X145551904Y-99497657D01*
X145551904Y-99497657D02*
X145599523Y-99592895D01*
X145599523Y-99592895D02*
X145599523Y-99688133D01*
X145599523Y-99688133D02*
X145551904Y-99830990D01*
X145551904Y-99830990D02*
X144980476Y-100402419D01*
X144980476Y-100402419D02*
X145599523Y-100402419D01*
X139346265Y-108269800D02*
X139489122Y-108317419D01*
X139489122Y-108317419D02*
X139727217Y-108317419D01*
X139727217Y-108317419D02*
X139822455Y-108269800D01*
X139822455Y-108269800D02*
X139870074Y-108222180D01*
X139870074Y-108222180D02*
X139917693Y-108126942D01*
X139917693Y-108126942D02*
X139917693Y-108031704D01*
X139917693Y-108031704D02*
X139870074Y-107936466D01*
X139870074Y-107936466D02*
X139822455Y-107888847D01*
X139822455Y-107888847D02*
X139727217Y-107841228D01*
X139727217Y-107841228D02*
X139536741Y-107793609D01*
X139536741Y-107793609D02*
X139441503Y-107745990D01*
X139441503Y-107745990D02*
X139393884Y-107698371D01*
X139393884Y-107698371D02*
X139346265Y-107603133D01*
X139346265Y-107603133D02*
X139346265Y-107507895D01*
X139346265Y-107507895D02*
X139393884Y-107412657D01*
X139393884Y-107412657D02*
X139441503Y-107365038D01*
X139441503Y-107365038D02*
X139536741Y-107317419D01*
X139536741Y-107317419D02*
X139774836Y-107317419D01*
X139774836Y-107317419D02*
X139917693Y-107365038D01*
X140917693Y-108222180D02*
X140870074Y-108269800D01*
X140870074Y-108269800D02*
X140727217Y-108317419D01*
X140727217Y-108317419D02*
X140631979Y-108317419D01*
X140631979Y-108317419D02*
X140489122Y-108269800D01*
X140489122Y-108269800D02*
X140393884Y-108174561D01*
X140393884Y-108174561D02*
X140346265Y-108079323D01*
X140346265Y-108079323D02*
X140298646Y-107888847D01*
X140298646Y-107888847D02*
X140298646Y-107745990D01*
X140298646Y-107745990D02*
X140346265Y-107555514D01*
X140346265Y-107555514D02*
X140393884Y-107460276D01*
X140393884Y-107460276D02*
X140489122Y-107365038D01*
X140489122Y-107365038D02*
X140631979Y-107317419D01*
X140631979Y-107317419D02*
X140727217Y-107317419D01*
X140727217Y-107317419D02*
X140870074Y-107365038D01*
X140870074Y-107365038D02*
X140917693Y-107412657D01*
X141822455Y-108317419D02*
X141346265Y-108317419D01*
X141346265Y-108317419D02*
X141346265Y-107317419D01*
X139298646Y-112317419D02*
X139965312Y-113317419D01*
X139965312Y-112317419D02*
X139298646Y-113317419D01*
X140346265Y-113317419D02*
X140346265Y-112317419D01*
X140346265Y-112317419D02*
X140584360Y-112317419D01*
X140584360Y-112317419D02*
X140727217Y-112365038D01*
X140727217Y-112365038D02*
X140822455Y-112460276D01*
X140822455Y-112460276D02*
X140870074Y-112555514D01*
X140870074Y-112555514D02*
X140917693Y-112745990D01*
X140917693Y-112745990D02*
X140917693Y-112888847D01*
X140917693Y-112888847D02*
X140870074Y-113079323D01*
X140870074Y-113079323D02*
X140822455Y-113174561D01*
X140822455Y-113174561D02*
X140727217Y-113269800D01*
X140727217Y-113269800D02*
X140584360Y-113317419D01*
X140584360Y-113317419D02*
X140346265Y-113317419D01*
X141298646Y-113031704D02*
X141774836Y-113031704D01*
X141203408Y-113317419D02*
X141536741Y-112317419D01*
X141536741Y-112317419D02*
X141870074Y-113317419D01*
X139248646Y-114917419D02*
X139915312Y-115917419D01*
X139915312Y-114917419D02*
X139248646Y-115917419D01*
X140867693Y-115822180D02*
X140820074Y-115869800D01*
X140820074Y-115869800D02*
X140677217Y-115917419D01*
X140677217Y-115917419D02*
X140581979Y-115917419D01*
X140581979Y-115917419D02*
X140439122Y-115869800D01*
X140439122Y-115869800D02*
X140343884Y-115774561D01*
X140343884Y-115774561D02*
X140296265Y-115679323D01*
X140296265Y-115679323D02*
X140248646Y-115488847D01*
X140248646Y-115488847D02*
X140248646Y-115345990D01*
X140248646Y-115345990D02*
X140296265Y-115155514D01*
X140296265Y-115155514D02*
X140343884Y-115060276D01*
X140343884Y-115060276D02*
X140439122Y-114965038D01*
X140439122Y-114965038D02*
X140581979Y-114917419D01*
X140581979Y-114917419D02*
X140677217Y-114917419D01*
X140677217Y-114917419D02*
X140820074Y-114965038D01*
X140820074Y-114965038D02*
X140867693Y-115012657D01*
X141772455Y-115917419D02*
X141296265Y-115917419D01*
X141296265Y-115917419D02*
X141296265Y-114917419D01*
X139343884Y-120967419D02*
X139343884Y-119967419D01*
X139820074Y-120967419D02*
X139820074Y-119967419D01*
X139820074Y-119967419D02*
X140391502Y-120967419D01*
X140391502Y-120967419D02*
X140391502Y-119967419D01*
X140724836Y-119967419D02*
X141296264Y-119967419D01*
X141010550Y-120967419D02*
X141010550Y-119967419D01*
X139296265Y-110769800D02*
X139439122Y-110817419D01*
X139439122Y-110817419D02*
X139677217Y-110817419D01*
X139677217Y-110817419D02*
X139772455Y-110769800D01*
X139772455Y-110769800D02*
X139820074Y-110722180D01*
X139820074Y-110722180D02*
X139867693Y-110626942D01*
X139867693Y-110626942D02*
X139867693Y-110531704D01*
X139867693Y-110531704D02*
X139820074Y-110436466D01*
X139820074Y-110436466D02*
X139772455Y-110388847D01*
X139772455Y-110388847D02*
X139677217Y-110341228D01*
X139677217Y-110341228D02*
X139486741Y-110293609D01*
X139486741Y-110293609D02*
X139391503Y-110245990D01*
X139391503Y-110245990D02*
X139343884Y-110198371D01*
X139343884Y-110198371D02*
X139296265Y-110103133D01*
X139296265Y-110103133D02*
X139296265Y-110007895D01*
X139296265Y-110007895D02*
X139343884Y-109912657D01*
X139343884Y-109912657D02*
X139391503Y-109865038D01*
X139391503Y-109865038D02*
X139486741Y-109817419D01*
X139486741Y-109817419D02*
X139724836Y-109817419D01*
X139724836Y-109817419D02*
X139867693Y-109865038D01*
X140296265Y-110817419D02*
X140296265Y-109817419D01*
X140296265Y-109817419D02*
X140534360Y-109817419D01*
X140534360Y-109817419D02*
X140677217Y-109865038D01*
X140677217Y-109865038D02*
X140772455Y-109960276D01*
X140772455Y-109960276D02*
X140820074Y-110055514D01*
X140820074Y-110055514D02*
X140867693Y-110245990D01*
X140867693Y-110245990D02*
X140867693Y-110388847D01*
X140867693Y-110388847D02*
X140820074Y-110579323D01*
X140820074Y-110579323D02*
X140772455Y-110674561D01*
X140772455Y-110674561D02*
X140677217Y-110769800D01*
X140677217Y-110769800D02*
X140534360Y-110817419D01*
X140534360Y-110817419D02*
X140296265Y-110817419D01*
X141248646Y-110531704D02*
X141724836Y-110531704D01*
X141153408Y-110817419D02*
X141486741Y-109817419D01*
X141486741Y-109817419D02*
X141820074Y-110817419D01*
X139296265Y-118131704D02*
X139772455Y-118131704D01*
X139201027Y-118417419D02*
X139534360Y-117417419D01*
X139534360Y-117417419D02*
X139867693Y-118417419D01*
X140201027Y-118417419D02*
X140201027Y-117417419D01*
X140201027Y-117417419D02*
X140439122Y-117417419D01*
X140439122Y-117417419D02*
X140581979Y-117465038D01*
X140581979Y-117465038D02*
X140677217Y-117560276D01*
X140677217Y-117560276D02*
X140724836Y-117655514D01*
X140724836Y-117655514D02*
X140772455Y-117845990D01*
X140772455Y-117845990D02*
X140772455Y-117988847D01*
X140772455Y-117988847D02*
X140724836Y-118179323D01*
X140724836Y-118179323D02*
X140677217Y-118274561D01*
X140677217Y-118274561D02*
X140581979Y-118369800D01*
X140581979Y-118369800D02*
X140439122Y-118417419D01*
X140439122Y-118417419D02*
X140201027Y-118417419D01*
X141391503Y-117417419D02*
X141581979Y-117417419D01*
X141581979Y-117417419D02*
X141677217Y-117465038D01*
X141677217Y-117465038D02*
X141772455Y-117560276D01*
X141772455Y-117560276D02*
X141820074Y-117750752D01*
X141820074Y-117750752D02*
X141820074Y-118084085D01*
X141820074Y-118084085D02*
X141772455Y-118274561D01*
X141772455Y-118274561D02*
X141677217Y-118369800D01*
X141677217Y-118369800D02*
X141581979Y-118417419D01*
X141581979Y-118417419D02*
X141391503Y-118417419D01*
X141391503Y-118417419D02*
X141296265Y-118369800D01*
X141296265Y-118369800D02*
X141201027Y-118274561D01*
X141201027Y-118274561D02*
X141153408Y-118084085D01*
X141153408Y-118084085D02*
X141153408Y-117750752D01*
X141153408Y-117750752D02*
X141201027Y-117560276D01*
X141201027Y-117560276D02*
X141296265Y-117465038D01*
X141296265Y-117465038D02*
X141391503Y-117417419D01*
X139251027Y-102167419D02*
X139584360Y-103167419D01*
X139584360Y-103167419D02*
X139917693Y-102167419D01*
X140679598Y-103119800D02*
X140584360Y-103167419D01*
X140584360Y-103167419D02*
X140393884Y-103167419D01*
X140393884Y-103167419D02*
X140298646Y-103119800D01*
X140298646Y-103119800D02*
X140251027Y-103072180D01*
X140251027Y-103072180D02*
X140203408Y-102976942D01*
X140203408Y-102976942D02*
X140203408Y-102691228D01*
X140203408Y-102691228D02*
X140251027Y-102595990D01*
X140251027Y-102595990D02*
X140298646Y-102548371D01*
X140298646Y-102548371D02*
X140393884Y-102500752D01*
X140393884Y-102500752D02*
X140584360Y-102500752D01*
X140584360Y-102500752D02*
X140679598Y-102548371D01*
X141536741Y-103119800D02*
X141441503Y-103167419D01*
X141441503Y-103167419D02*
X141251027Y-103167419D01*
X141251027Y-103167419D02*
X141155789Y-103119800D01*
X141155789Y-103119800D02*
X141108170Y-103072180D01*
X141108170Y-103072180D02*
X141060551Y-102976942D01*
X141060551Y-102976942D02*
X141060551Y-102691228D01*
X141060551Y-102691228D02*
X141108170Y-102595990D01*
X141108170Y-102595990D02*
X141155789Y-102548371D01*
X141155789Y-102548371D02*
X141251027Y-102500752D01*
X141251027Y-102500752D02*
X141441503Y-102500752D01*
X141441503Y-102500752D02*
X141536741Y-102548371D01*
X139917693Y-104815038D02*
X139822455Y-104767419D01*
X139822455Y-104767419D02*
X139679598Y-104767419D01*
X139679598Y-104767419D02*
X139536741Y-104815038D01*
X139536741Y-104815038D02*
X139441503Y-104910276D01*
X139441503Y-104910276D02*
X139393884Y-105005514D01*
X139393884Y-105005514D02*
X139346265Y-105195990D01*
X139346265Y-105195990D02*
X139346265Y-105338847D01*
X139346265Y-105338847D02*
X139393884Y-105529323D01*
X139393884Y-105529323D02*
X139441503Y-105624561D01*
X139441503Y-105624561D02*
X139536741Y-105719800D01*
X139536741Y-105719800D02*
X139679598Y-105767419D01*
X139679598Y-105767419D02*
X139774836Y-105767419D01*
X139774836Y-105767419D02*
X139917693Y-105719800D01*
X139917693Y-105719800D02*
X139965312Y-105672180D01*
X139965312Y-105672180D02*
X139965312Y-105338847D01*
X139965312Y-105338847D02*
X139774836Y-105338847D01*
X140393884Y-105767419D02*
X140393884Y-104767419D01*
X140393884Y-104767419D02*
X140965312Y-105767419D01*
X140965312Y-105767419D02*
X140965312Y-104767419D01*
X141441503Y-105767419D02*
X141441503Y-104767419D01*
X141441503Y-104767419D02*
X141679598Y-104767419D01*
X141679598Y-104767419D02*
X141822455Y-104815038D01*
X141822455Y-104815038D02*
X141917693Y-104910276D01*
X141917693Y-104910276D02*
X141965312Y-105005514D01*
X141965312Y-105005514D02*
X142012931Y-105195990D01*
X142012931Y-105195990D02*
X142012931Y-105338847D01*
X142012931Y-105338847D02*
X141965312Y-105529323D01*
X141965312Y-105529323D02*
X141917693Y-105624561D01*
X141917693Y-105624561D02*
X141822455Y-105719800D01*
X141822455Y-105719800D02*
X141679598Y-105767419D01*
X141679598Y-105767419D02*
X141441503Y-105767419D01*
D12*
X128128095Y-99254819D02*
X128128095Y-100064342D01*
X128128095Y-100064342D02*
X128175714Y-100159580D01*
X128175714Y-100159580D02*
X128223333Y-100207200D01*
X128223333Y-100207200D02*
X128318571Y-100254819D01*
X128318571Y-100254819D02*
X128509047Y-100254819D01*
X128509047Y-100254819D02*
X128604285Y-100207200D01*
X128604285Y-100207200D02*
X128651904Y-100159580D01*
X128651904Y-100159580D02*
X128699523Y-100064342D01*
X128699523Y-100064342D02*
X128699523Y-99254819D01*
X129699523Y-100254819D02*
X129128095Y-100254819D01*
X129413809Y-100254819D02*
X129413809Y-99254819D01*
X129413809Y-99254819D02*
X129318571Y-99397676D01*
X129318571Y-99397676D02*
X129223333Y-99492914D01*
X129223333Y-99492914D02*
X129128095Y-99540533D01*
X124262571Y-114923009D02*
X124595904Y-114923009D01*
X124738761Y-115446819D02*
X124262571Y-115446819D01*
X124262571Y-115446819D02*
X124262571Y-114446819D01*
X124262571Y-114446819D02*
X124738761Y-114446819D01*
X125119714Y-115399200D02*
X125262571Y-115446819D01*
X125262571Y-115446819D02*
X125500666Y-115446819D01*
X125500666Y-115446819D02*
X125595904Y-115399200D01*
X125595904Y-115399200D02*
X125643523Y-115351580D01*
X125643523Y-115351580D02*
X125691142Y-115256342D01*
X125691142Y-115256342D02*
X125691142Y-115161104D01*
X125691142Y-115161104D02*
X125643523Y-115065866D01*
X125643523Y-115065866D02*
X125595904Y-115018247D01*
X125595904Y-115018247D02*
X125500666Y-114970628D01*
X125500666Y-114970628D02*
X125310190Y-114923009D01*
X125310190Y-114923009D02*
X125214952Y-114875390D01*
X125214952Y-114875390D02*
X125167333Y-114827771D01*
X125167333Y-114827771D02*
X125119714Y-114732533D01*
X125119714Y-114732533D02*
X125119714Y-114637295D01*
X125119714Y-114637295D02*
X125167333Y-114542057D01*
X125167333Y-114542057D02*
X125214952Y-114494438D01*
X125214952Y-114494438D02*
X125310190Y-114446819D01*
X125310190Y-114446819D02*
X125548285Y-114446819D01*
X125548285Y-114446819D02*
X125691142Y-114494438D01*
X126119714Y-115446819D02*
X126119714Y-114446819D01*
X126119714Y-114446819D02*
X126500666Y-114446819D01*
X126500666Y-114446819D02*
X126595904Y-114494438D01*
X126595904Y-114494438D02*
X126643523Y-114542057D01*
X126643523Y-114542057D02*
X126691142Y-114637295D01*
X126691142Y-114637295D02*
X126691142Y-114780152D01*
X126691142Y-114780152D02*
X126643523Y-114875390D01*
X126643523Y-114875390D02*
X126595904Y-114923009D01*
X126595904Y-114923009D02*
X126500666Y-114970628D01*
X126500666Y-114970628D02*
X126119714Y-114970628D01*
X127262571Y-114875390D02*
X127167333Y-114827771D01*
X127167333Y-114827771D02*
X127119714Y-114780152D01*
X127119714Y-114780152D02*
X127072095Y-114684914D01*
X127072095Y-114684914D02*
X127072095Y-114637295D01*
X127072095Y-114637295D02*
X127119714Y-114542057D01*
X127119714Y-114542057D02*
X127167333Y-114494438D01*
X127167333Y-114494438D02*
X127262571Y-114446819D01*
X127262571Y-114446819D02*
X127453047Y-114446819D01*
X127453047Y-114446819D02*
X127548285Y-114494438D01*
X127548285Y-114494438D02*
X127595904Y-114542057D01*
X127595904Y-114542057D02*
X127643523Y-114637295D01*
X127643523Y-114637295D02*
X127643523Y-114684914D01*
X127643523Y-114684914D02*
X127595904Y-114780152D01*
X127595904Y-114780152D02*
X127548285Y-114827771D01*
X127548285Y-114827771D02*
X127453047Y-114875390D01*
X127453047Y-114875390D02*
X127262571Y-114875390D01*
X127262571Y-114875390D02*
X127167333Y-114923009D01*
X127167333Y-114923009D02*
X127119714Y-114970628D01*
X127119714Y-114970628D02*
X127072095Y-115065866D01*
X127072095Y-115065866D02*
X127072095Y-115256342D01*
X127072095Y-115256342D02*
X127119714Y-115351580D01*
X127119714Y-115351580D02*
X127167333Y-115399200D01*
X127167333Y-115399200D02*
X127262571Y-115446819D01*
X127262571Y-115446819D02*
X127453047Y-115446819D01*
X127453047Y-115446819D02*
X127548285Y-115399200D01*
X127548285Y-115399200D02*
X127595904Y-115351580D01*
X127595904Y-115351580D02*
X127643523Y-115256342D01*
X127643523Y-115256342D02*
X127643523Y-115065866D01*
X127643523Y-115065866D02*
X127595904Y-114970628D01*
X127595904Y-114970628D02*
X127548285Y-114923009D01*
X127548285Y-114923009D02*
X127453047Y-114875390D01*
X128024476Y-114542057D02*
X128072095Y-114494438D01*
X128072095Y-114494438D02*
X128167333Y-114446819D01*
X128167333Y-114446819D02*
X128405428Y-114446819D01*
X128405428Y-114446819D02*
X128500666Y-114494438D01*
X128500666Y-114494438D02*
X128548285Y-114542057D01*
X128548285Y-114542057D02*
X128595904Y-114637295D01*
X128595904Y-114637295D02*
X128595904Y-114732533D01*
X128595904Y-114732533D02*
X128548285Y-114875390D01*
X128548285Y-114875390D02*
X127976857Y-115446819D01*
X127976857Y-115446819D02*
X128595904Y-115446819D01*
X129453047Y-114446819D02*
X129262571Y-114446819D01*
X129262571Y-114446819D02*
X129167333Y-114494438D01*
X129167333Y-114494438D02*
X129119714Y-114542057D01*
X129119714Y-114542057D02*
X129024476Y-114684914D01*
X129024476Y-114684914D02*
X128976857Y-114875390D01*
X128976857Y-114875390D02*
X128976857Y-115256342D01*
X128976857Y-115256342D02*
X129024476Y-115351580D01*
X129024476Y-115351580D02*
X129072095Y-115399200D01*
X129072095Y-115399200D02*
X129167333Y-115446819D01*
X129167333Y-115446819D02*
X129357809Y-115446819D01*
X129357809Y-115446819D02*
X129453047Y-115399200D01*
X129453047Y-115399200D02*
X129500666Y-115351580D01*
X129500666Y-115351580D02*
X129548285Y-115256342D01*
X129548285Y-115256342D02*
X129548285Y-115018247D01*
X129548285Y-115018247D02*
X129500666Y-114923009D01*
X129500666Y-114923009D02*
X129453047Y-114875390D01*
X129453047Y-114875390D02*
X129357809Y-114827771D01*
X129357809Y-114827771D02*
X129167333Y-114827771D01*
X129167333Y-114827771D02*
X129072095Y-114875390D01*
X129072095Y-114875390D02*
X129024476Y-114923009D01*
X129024476Y-114923009D02*
X128976857Y-115018247D01*
X130405428Y-114446819D02*
X130214952Y-114446819D01*
X130214952Y-114446819D02*
X130119714Y-114494438D01*
X130119714Y-114494438D02*
X130072095Y-114542057D01*
X130072095Y-114542057D02*
X129976857Y-114684914D01*
X129976857Y-114684914D02*
X129929238Y-114875390D01*
X129929238Y-114875390D02*
X129929238Y-115256342D01*
X129929238Y-115256342D02*
X129976857Y-115351580D01*
X129976857Y-115351580D02*
X130024476Y-115399200D01*
X130024476Y-115399200D02*
X130119714Y-115446819D01*
X130119714Y-115446819D02*
X130310190Y-115446819D01*
X130310190Y-115446819D02*
X130405428Y-115399200D01*
X130405428Y-115399200D02*
X130453047Y-115351580D01*
X130453047Y-115351580D02*
X130500666Y-115256342D01*
X130500666Y-115256342D02*
X130500666Y-115018247D01*
X130500666Y-115018247D02*
X130453047Y-114923009D01*
X130453047Y-114923009D02*
X130405428Y-114875390D01*
X130405428Y-114875390D02*
X130310190Y-114827771D01*
X130310190Y-114827771D02*
X130119714Y-114827771D01*
X130119714Y-114827771D02*
X130024476Y-114875390D01*
X130024476Y-114875390D02*
X129976857Y-114923009D01*
X129976857Y-114923009D02*
X129929238Y-115018247D01*
X130929238Y-115065866D02*
X131691143Y-115065866D01*
X132357809Y-114446819D02*
X132453047Y-114446819D01*
X132453047Y-114446819D02*
X132548285Y-114494438D01*
X132548285Y-114494438D02*
X132595904Y-114542057D01*
X132595904Y-114542057D02*
X132643523Y-114637295D01*
X132643523Y-114637295D02*
X132691142Y-114827771D01*
X132691142Y-114827771D02*
X132691142Y-115065866D01*
X132691142Y-115065866D02*
X132643523Y-115256342D01*
X132643523Y-115256342D02*
X132595904Y-115351580D01*
X132595904Y-115351580D02*
X132548285Y-115399200D01*
X132548285Y-115399200D02*
X132453047Y-115446819D01*
X132453047Y-115446819D02*
X132357809Y-115446819D01*
X132357809Y-115446819D02*
X132262571Y-115399200D01*
X132262571Y-115399200D02*
X132214952Y-115351580D01*
X132214952Y-115351580D02*
X132167333Y-115256342D01*
X132167333Y-115256342D02*
X132119714Y-115065866D01*
X132119714Y-115065866D02*
X132119714Y-114827771D01*
X132119714Y-114827771D02*
X132167333Y-114637295D01*
X132167333Y-114637295D02*
X132214952Y-114542057D01*
X132214952Y-114542057D02*
X132262571Y-114494438D01*
X132262571Y-114494438D02*
X132357809Y-114446819D01*
X133643523Y-115446819D02*
X133072095Y-115446819D01*
X133357809Y-115446819D02*
X133357809Y-114446819D01*
X133357809Y-114446819D02*
X133262571Y-114589676D01*
X133262571Y-114589676D02*
X133167333Y-114684914D01*
X133167333Y-114684914D02*
X133072095Y-114732533D01*
X134024476Y-115399200D02*
X134119714Y-115446819D01*
X134119714Y-115446819D02*
X134310190Y-115446819D01*
X134310190Y-115446819D02*
X134405428Y-115399200D01*
X134405428Y-115399200D02*
X134453047Y-115303961D01*
X134453047Y-115303961D02*
X134453047Y-115256342D01*
X134453047Y-115256342D02*
X134405428Y-115161104D01*
X134405428Y-115161104D02*
X134310190Y-115113485D01*
X134310190Y-115113485D02*
X134167333Y-115113485D01*
X134167333Y-115113485D02*
X134072095Y-115065866D01*
X134072095Y-115065866D02*
X134024476Y-114970628D01*
X134024476Y-114970628D02*
X134024476Y-114923009D01*
X134024476Y-114923009D02*
X134072095Y-114827771D01*
X134072095Y-114827771D02*
X134167333Y-114780152D01*
X134167333Y-114780152D02*
X134310190Y-114780152D01*
X134310190Y-114780152D02*
X134405428Y-114827771D01*
X156668095Y-81174819D02*
X156668095Y-81984342D01*
X156668095Y-81984342D02*
X156715714Y-82079580D01*
X156715714Y-82079580D02*
X156763333Y-82127200D01*
X156763333Y-82127200D02*
X156858571Y-82174819D01*
X156858571Y-82174819D02*
X157049047Y-82174819D01*
X157049047Y-82174819D02*
X157144285Y-82127200D01*
X157144285Y-82127200D02*
X157191904Y-82079580D01*
X157191904Y-82079580D02*
X157239523Y-81984342D01*
X157239523Y-81984342D02*
X157239523Y-81174819D01*
X157620476Y-81174819D02*
X158239523Y-81174819D01*
X158239523Y-81174819D02*
X157906190Y-81555771D01*
X157906190Y-81555771D02*
X158049047Y-81555771D01*
X158049047Y-81555771D02*
X158144285Y-81603390D01*
X158144285Y-81603390D02*
X158191904Y-81651009D01*
X158191904Y-81651009D02*
X158239523Y-81746247D01*
X158239523Y-81746247D02*
X158239523Y-81984342D01*
X158239523Y-81984342D02*
X158191904Y-82079580D01*
X158191904Y-82079580D02*
X158144285Y-82127200D01*
X158144285Y-82127200D02*
X158049047Y-82174819D01*
X158049047Y-82174819D02*
X157763333Y-82174819D01*
X157763333Y-82174819D02*
X157668095Y-82127200D01*
X157668095Y-82127200D02*
X157620476Y-82079580D01*
X138461905Y-125234819D02*
X138461905Y-124234819D01*
X138461905Y-124234819D02*
X138700000Y-124234819D01*
X138700000Y-124234819D02*
X138842857Y-124282438D01*
X138842857Y-124282438D02*
X138938095Y-124377676D01*
X138938095Y-124377676D02*
X138985714Y-124472914D01*
X138985714Y-124472914D02*
X139033333Y-124663390D01*
X139033333Y-124663390D02*
X139033333Y-124806247D01*
X139033333Y-124806247D02*
X138985714Y-124996723D01*
X138985714Y-124996723D02*
X138938095Y-125091961D01*
X138938095Y-125091961D02*
X138842857Y-125187200D01*
X138842857Y-125187200D02*
X138700000Y-125234819D01*
X138700000Y-125234819D02*
X138461905Y-125234819D01*
X139985714Y-125234819D02*
X139414286Y-125234819D01*
X139700000Y-125234819D02*
X139700000Y-124234819D01*
X139700000Y-124234819D02*
X139604762Y-124377676D01*
X139604762Y-124377676D02*
X139509524Y-124472914D01*
X139509524Y-124472914D02*
X139414286Y-124520533D01*
X154313333Y-116184819D02*
X153980000Y-115708628D01*
X153741905Y-116184819D02*
X153741905Y-115184819D01*
X153741905Y-115184819D02*
X154122857Y-115184819D01*
X154122857Y-115184819D02*
X154218095Y-115232438D01*
X154218095Y-115232438D02*
X154265714Y-115280057D01*
X154265714Y-115280057D02*
X154313333Y-115375295D01*
X154313333Y-115375295D02*
X154313333Y-115518152D01*
X154313333Y-115518152D02*
X154265714Y-115613390D01*
X154265714Y-115613390D02*
X154218095Y-115661009D01*
X154218095Y-115661009D02*
X154122857Y-115708628D01*
X154122857Y-115708628D02*
X153741905Y-115708628D01*
X154646667Y-115184819D02*
X155265714Y-115184819D01*
X155265714Y-115184819D02*
X154932381Y-115565771D01*
X154932381Y-115565771D02*
X155075238Y-115565771D01*
X155075238Y-115565771D02*
X155170476Y-115613390D01*
X155170476Y-115613390D02*
X155218095Y-115661009D01*
X155218095Y-115661009D02*
X155265714Y-115756247D01*
X155265714Y-115756247D02*
X155265714Y-115994342D01*
X155265714Y-115994342D02*
X155218095Y-116089580D01*
X155218095Y-116089580D02*
X155170476Y-116137200D01*
X155170476Y-116137200D02*
X155075238Y-116184819D01*
X155075238Y-116184819D02*
X154789524Y-116184819D01*
X154789524Y-116184819D02*
X154694286Y-116137200D01*
X154694286Y-116137200D02*
X154646667Y-116089580D01*
D11*
X157496666Y-105617419D02*
X157496666Y-106331704D01*
X157496666Y-106331704D02*
X157449047Y-106474561D01*
X157449047Y-106474561D02*
X157353809Y-106569800D01*
X157353809Y-106569800D02*
X157210952Y-106617419D01*
X157210952Y-106617419D02*
X157115714Y-106617419D01*
X158496666Y-106617419D02*
X157925238Y-106617419D01*
X158210952Y-106617419D02*
X158210952Y-105617419D01*
X158210952Y-105617419D02*
X158115714Y-105760276D01*
X158115714Y-105760276D02*
X158020476Y-105855514D01*
X158020476Y-105855514D02*
X157925238Y-105903133D01*
D12*
X154794761Y-103130057D02*
X154699523Y-103082438D01*
X154699523Y-103082438D02*
X154604285Y-102987200D01*
X154604285Y-102987200D02*
X154461428Y-102844342D01*
X154461428Y-102844342D02*
X154366190Y-102796723D01*
X154366190Y-102796723D02*
X154270952Y-102796723D01*
X154318571Y-103034819D02*
X154223333Y-102987200D01*
X154223333Y-102987200D02*
X154128095Y-102891961D01*
X154128095Y-102891961D02*
X154080476Y-102701485D01*
X154080476Y-102701485D02*
X154080476Y-102368152D01*
X154080476Y-102368152D02*
X154128095Y-102177676D01*
X154128095Y-102177676D02*
X154223333Y-102082438D01*
X154223333Y-102082438D02*
X154318571Y-102034819D01*
X154318571Y-102034819D02*
X154509047Y-102034819D01*
X154509047Y-102034819D02*
X154604285Y-102082438D01*
X154604285Y-102082438D02*
X154699523Y-102177676D01*
X154699523Y-102177676D02*
X154747142Y-102368152D01*
X154747142Y-102368152D02*
X154747142Y-102701485D01*
X154747142Y-102701485D02*
X154699523Y-102891961D01*
X154699523Y-102891961D02*
X154604285Y-102987200D01*
X154604285Y-102987200D02*
X154509047Y-103034819D01*
X154509047Y-103034819D02*
X154318571Y-103034819D01*
X155699523Y-103034819D02*
X155128095Y-103034819D01*
X155413809Y-103034819D02*
X155413809Y-102034819D01*
X155413809Y-102034819D02*
X155318571Y-102177676D01*
X155318571Y-102177676D02*
X155223333Y-102272914D01*
X155223333Y-102272914D02*
X155128095Y-102320533D01*
D13*
%TO.C,R2*%
X157212936Y-118725000D02*
X157667064Y-118725000D01*
X157212936Y-120195000D02*
X157667064Y-120195000D01*
%TO.C,C1*%
X154611248Y-84865000D02*
X155133752Y-84865000D01*
X154611248Y-86335000D02*
X155133752Y-86335000D01*
%TO.C,C2*%
X152961248Y-75595000D02*
X153483752Y-75595000D01*
X152961248Y-77065000D02*
X153483752Y-77065000D01*
%TO.C,DISP1*%
X121897500Y-98820000D02*
X160097500Y-98820000D01*
X160097500Y-86620000D01*
X121897500Y-86620000D01*
X121897500Y-98820000D01*
%TO.C,J2*%
D11*
X144930000Y-68720000D02*
X137930000Y-68720000D01*
X137930000Y-73720000D01*
X144930000Y-73720000D01*
X144930000Y-68720000D01*
X148430000Y-68920000D02*
X134430000Y-68920000D01*
X134430000Y-83920000D01*
X148430000Y-83920000D01*
X148430000Y-68920000D01*
D13*
%TO.C,R1*%
X157132936Y-122655000D02*
X157587064Y-122655000D01*
X157132936Y-124125000D02*
X157587064Y-124125000D01*
%TO.C,U2*%
D11*
X137390000Y-101445000D02*
X152950000Y-101445000D01*
X152950000Y-121545000D01*
X137390000Y-121545000D01*
X137390000Y-101445000D01*
D14*
%TO.C,U1*%
X121968000Y-101022000D02*
X136192000Y-101022000D01*
X121968000Y-125660000D02*
X121968000Y-101022000D01*
D15*
X124000000Y-101530000D02*
X124000000Y-106610000D01*
X124000000Y-106610000D02*
X134160000Y-106610000D01*
X131620000Y-101530000D02*
X124000000Y-101530000D01*
X134160000Y-101530000D02*
X131620000Y-101530000D01*
X134160000Y-104070000D02*
X134160000Y-101530000D01*
X134160000Y-106610000D02*
X134160000Y-104070000D01*
D14*
X136192000Y-101022000D02*
X136192000Y-125660000D01*
X136192000Y-125660000D02*
X121968000Y-125660000D01*
D13*
%TO.C,U3*%
X155340000Y-79770000D02*
X151740000Y-79770000D01*
X153540000Y-84220000D02*
G75*
G02*
X151701522Y-79781522I0J2600000D01*
G01*
X155378478Y-79781522D02*
G75*
G02*
X153540000Y-84220001I-1838478J-1838478D01*
G01*
%TO.C,D1*%
X140880000Y-126085000D02*
X144765000Y-126085000D01*
X144765000Y-123815000D02*
X140880000Y-123815000D01*
X144765000Y-126085000D02*
X144765000Y-123815000D01*
%TO.C,R3*%
X157717064Y-114985000D02*
X157262936Y-114985000D01*
X157717064Y-116455000D02*
X157262936Y-116455000D01*
%TO.C,J1*%
D11*
X154645000Y-113805000D02*
X161395000Y-113805000D01*
X161395000Y-107055000D01*
X154645000Y-107055000D01*
X154645000Y-113805000D01*
D13*
%TO.C,Q1*%
X156262500Y-102610000D02*
X156262500Y-101960000D01*
X156262500Y-102610000D02*
X156262500Y-103260000D01*
X159382500Y-102610000D02*
X159382500Y-101960000D01*
X159382500Y-102610000D02*
X159382500Y-103260000D01*
X159662500Y-101687500D02*
X159332500Y-101447500D01*
X159662500Y-101207500D01*
X159662500Y-101687500D01*
G36*
X159662500Y-101687500D02*
G01*
X159332500Y-101447500D01*
X159662500Y-101207500D01*
X159662500Y-101687500D01*
G37*
%TD*%
M02*
