M48
; DRILL file {KiCad 8.0.9-unknown-202502181922~c4009544a9~ubuntu24.04.1} date 2025-04-06T14:18:48-0400
; FORMAT={-:-/ absolute / inch / decimal}
; #@! TF.CreationDate,2025-04-06T14:18:48-04:00
; #@! TF.GenerationSoftware,Kicad,Pcbnew,8.0.9-unknown-202502181922~c4009544a9~ubuntu24.04.1
; #@! TF.FileFunction,Plated,1,2,PTH
FMAT,2
INCH
; #@! TA.AperFunction,Plated,PTH,ComponentDrill
T1C0.0295
; #@! TA.AperFunction,Plated,PTH,ComponentDrill
T2C0.0354
; #@! TA.AperFunction,Plated,PTH,ComponentDrill
T3C0.0394
; #@! TA.AperFunction,Plated,PTH,ComponentDrill
T4C0.0400
%
G90
G05
T1
X5.9949Y-3.2134
X6.0449Y-3.2134
X6.0949Y-3.2134
T2
X5.3555Y-2.9516
X5.365Y-3.2665
X5.4445Y-4.0411
X5.4445Y-4.1411
X5.4445Y-4.2411
X5.4445Y-4.3411
X5.4445Y-4.4411
X5.4445Y-4.5411
X5.4445Y-4.6411
X5.4445Y-4.7411
X5.465Y-3.2665
X5.565Y-3.2665
X5.665Y-3.2665
X5.765Y-3.2665
X5.7886Y-2.9516
T3
X4.8582Y-3.5039
X4.8582Y-3.6039
X4.8582Y-3.7039
X4.8582Y-3.8039
X6.2213Y-4.2787
X6.2213Y-4.4165
T4
X4.9319Y-4.0472
X4.9319Y-4.1472
X5.0319Y-4.0472
X5.0319Y-4.1472
X5.1319Y-4.0472
X5.1319Y-4.1472
X5.2319Y-4.0472
X5.2319Y-4.1472
M30
