%TF.GenerationSoftware,KiCad,Pcbnew,8.0.8-unknown-202501290020~8b811aa383~ubuntu24.04.1*%
%TF.CreationDate,2025-03-07T17:37:34-05:00*%
%TF.ProjectId,Acceleration Logger,41636365-6c65-4726-9174-696f6e204c6f,rev?*%
%TF.SameCoordinates,Original*%
%TF.FileFunction,Copper,L1,Top*%
%TF.FilePolarity,Positive*%
%FSLAX46Y46*%
G04 Gerber Fmt 4.6, Leading zero omitted, Abs format (unit mm)*
G04 Created by KiCad (PCBNEW 8.0.8-unknown-202501290020~8b811aa383~ubuntu24.04.1) date 2025-03-07 17:37:34*
%MOMM*%
%LPD*%
G01*
G04 APERTURE LIST*
G04 Aperture macros list*
%AMRoundRect*
0 Rectangle with rounded corners*
0 $1 Rounding radius*
0 $2 $3 $4 $5 $6 $7 $8 $9 X,Y pos of 4 corners*
0 Add a 4 corners polygon primitive as box body*
4,1,4,$2,$3,$4,$5,$6,$7,$8,$9,$2,$3,0*
0 Add four circle primitives for the rounded corners*
1,1,$1+$1,$2,$3*
1,1,$1+$1,$4,$5*
1,1,$1+$1,$6,$7*
1,1,$1+$1,$8,$9*
0 Add four rect primitives between the rounded corners*
20,1,$1+$1,$2,$3,$4,$5,0*
20,1,$1+$1,$4,$5,$6,$7,0*
20,1,$1+$1,$6,$7,$8,$9,0*
20,1,$1+$1,$8,$9,$2,$3,0*%
G04 Aperture macros list end*
%TA.AperFunction,ComponentPad*%
%ADD10C,1.524000*%
%TD*%
%TA.AperFunction,SMDPad,CuDef*%
%ADD11RoundRect,0.250000X-0.350000X-0.450000X0.350000X-0.450000X0.350000X0.450000X-0.350000X0.450000X0*%
%TD*%
%TA.AperFunction,SMDPad,CuDef*%
%ADD12RoundRect,0.250000X-0.337500X-0.475000X0.337500X-0.475000X0.337500X0.475000X-0.337500X0.475000X0*%
%TD*%
%TA.AperFunction,ComponentPad*%
%ADD13R,2.000000X1.600000*%
%TD*%
%TA.AperFunction,ComponentPad*%
%ADD14O,2.000000X1.600000*%
%TD*%
%TA.AperFunction,ComponentPad*%
%ADD15R,1.524000X1.524000*%
%TD*%
%TA.AperFunction,ComponentPad*%
%ADD16R,1.727200X1.727200*%
%TD*%
%TA.AperFunction,ComponentPad*%
%ADD17O,1.727200X1.727200*%
%TD*%
%TA.AperFunction,ComponentPad*%
%ADD18R,1.050000X1.500000*%
%TD*%
%TA.AperFunction,ComponentPad*%
%ADD19O,1.050000X1.500000*%
%TD*%
%TA.AperFunction,SMDPad,CuDef*%
%ADD20RoundRect,0.250000X0.375000X0.625000X-0.375000X0.625000X-0.375000X-0.625000X0.375000X-0.625000X0*%
%TD*%
%TA.AperFunction,SMDPad,CuDef*%
%ADD21RoundRect,0.150000X-0.150000X0.587500X-0.150000X-0.587500X0.150000X-0.587500X0.150000X0.587500X0*%
%TD*%
%TA.AperFunction,Conductor*%
%ADD22C,0.200000*%
%TD*%
G04 APERTURE END LIST*
D10*
%TO.P,J2,1,VBus*%
%TO.N,/+5V*%
X136430000Y-82970000D03*
%TO.P,J2,2,D-*%
%TO.N,unconnected-(J2-D--Pad2)*%
X138970000Y-82970000D03*
%TO.P,J2,3,D+*%
%TO.N,unconnected-(J2-D+-Pad3)*%
X141510000Y-82970000D03*
%TO.P,J2,4,ID*%
%TO.N,unconnected-(J2-ID-Pad4)*%
X144050000Y-82970000D03*
%TO.P,J2,5,Gnd*%
%TO.N,Earth*%
X146590000Y-82970000D03*
%TO.P,J2,6*%
%TO.N,N/C*%
X146830000Y-74970000D03*
%TO.P,J2,7*%
X135830000Y-74970000D03*
%TD*%
D11*
%TO.P,R2,1*%
%TO.N,Net-(D1-A)*%
X156500000Y-118840000D03*
%TO.P,R2,2*%
%TO.N,Net-(Q1-B)*%
X158500000Y-118840000D03*
%TD*%
D12*
%TO.P,C1,1*%
%TO.N,/+5V*%
X152185000Y-72230000D03*
%TO.P,C1,2*%
%TO.N,Earth*%
X154260000Y-72230000D03*
%TD*%
%TO.P,C2,1*%
%TO.N,+3V3*%
X152185000Y-76330000D03*
%TO.P,C2,2*%
%TO.N,Earth*%
X154260000Y-76330000D03*
%TD*%
D13*
%TO.P,DISP1,1,Gnd*%
%TO.N,Earth*%
X123397500Y-96620000D03*
D14*
%TO.P,DISP1,2,Vcc*%
%TO.N,+3V3*%
X123397500Y-94080000D03*
%TO.P,DISP1,3,SCL*%
%TO.N,Net-(DISP1-SCL)*%
X123397500Y-91540000D03*
%TO.P,DISP1,4,SDA*%
%TO.N,Net-(DISP1-SDA)*%
X123397500Y-89000000D03*
%TD*%
D11*
%TO.P,R1,1*%
%TO.N,Net-(D1-K)*%
X156360000Y-123390000D03*
%TO.P,R1,2*%
%TO.N,Earth*%
X158360000Y-123390000D03*
%TD*%
D15*
%TO.P,U2,1,Vcc*%
%TO.N,+3V3*%
X138290000Y-102645000D03*
D10*
%TO.P,U2,2,Gnd*%
%TO.N,Earth*%
X138290000Y-105185000D03*
%TO.P,U2,3,SCL*%
%TO.N,Net-(DISP1-SCL)*%
X138290000Y-107725000D03*
%TO.P,U2,4,SDA*%
%TO.N,Net-(DISP1-SDA)*%
X138290000Y-110265000D03*
%TO.P,U2,5,XDA*%
%TO.N,unconnected-(U2-XDA-Pad5)*%
X138290000Y-112805000D03*
%TO.P,U2,6,XCL*%
%TO.N,unconnected-(U2-XCL-Pad6)*%
X138290000Y-115345000D03*
%TO.P,U2,7,AD0*%
%TO.N,unconnected-(U2-AD0-Pad7)*%
X138290000Y-117885000D03*
%TO.P,U2,8,INT*%
%TO.N,Net-(U1-U0TXD{slash}GPIO1)*%
X138290000Y-120425000D03*
%TD*%
D16*
%TO.P,U1,1,GND*%
%TO.N,Earth*%
X132890000Y-105340000D03*
D17*
%TO.P,U1,2,U0TXD/GPIO1*%
%TO.N,Net-(U1-U0TXD{slash}GPIO1)*%
X132890000Y-102800000D03*
%TO.P,U1,3,U1TXD/GPIO2*%
%TO.N,Net-(DISP1-SCL)*%
X130350000Y-105340000D03*
%TO.P,U1,4,CH_EN/CH_PD*%
%TO.N,unconnected-(U1-CH_EN{slash}CH_PD-Pad4)*%
X130350000Y-102800000D03*
%TO.P,U1,5,GPIO0*%
%TO.N,Net-(DISP1-SDA)*%
X127810000Y-105340000D03*
%TO.P,U1,6,RST*%
%TO.N,unconnected-(U1-RST-Pad6)*%
X127810000Y-102800000D03*
%TO.P,U1,7,GPIO3/U0RXD*%
%TO.N,Net-(D1-A)*%
X125270000Y-105340000D03*
%TO.P,U1,8,VCC*%
%TO.N,+3V3*%
X125270000Y-102800000D03*
%TD*%
D18*
%TO.P,U3,1,GND*%
%TO.N,Earth*%
X154810000Y-81620000D03*
D19*
%TO.P,U3,2,VI*%
%TO.N,/+5V*%
X153540000Y-81620000D03*
%TO.P,U3,3,VO*%
%TO.N,+3V3*%
X152270000Y-81620000D03*
%TD*%
D20*
%TO.P,D1,1,K*%
%TO.N,Net-(D1-K)*%
X143880000Y-124950000D03*
%TO.P,D1,2,A*%
%TO.N,Net-(D1-A)*%
X141080000Y-124950000D03*
%TD*%
D15*
%TO.P,J1,1,Pin_1*%
%TO.N,+3V3*%
X158020000Y-112180000D03*
D10*
%TO.P,J1,2,Pin_2*%
%TO.N,Net-(J1-Pin_2)*%
X158020000Y-108680000D03*
%TD*%
D21*
%TO.P,Q1,1,B*%
%TO.N,Net-(Q1-B)*%
X158772500Y-101672500D03*
%TO.P,Q1,2,E*%
%TO.N,Earth*%
X156872500Y-101672500D03*
%TO.P,Q1,3,C*%
%TO.N,Net-(J1-Pin_2)*%
X157822500Y-103547500D03*
%TD*%
D22*
%TO.N,Net-(DISP1-SCL)*%
X132735000Y-107725000D02*
X138290000Y-107725000D01*
X130350000Y-105340000D02*
X132735000Y-107725000D01*
%TO.N,Net-(DISP1-SDA)*%
X132735000Y-110265000D02*
X138290000Y-110265000D01*
X127810000Y-105340000D02*
X132735000Y-110265000D01*
%TO.N,Earth*%
X154810000Y-99610000D02*
X156872500Y-101672500D01*
X132890000Y-105340000D02*
X132890000Y-105240000D01*
X138290000Y-105185000D02*
X133045000Y-105185000D01*
X160320000Y-100310000D02*
X157230000Y-100310000D01*
X157230000Y-100310000D02*
X156872500Y-100667500D01*
X134053600Y-104076400D02*
X134053600Y-102318021D01*
X161830000Y-101820000D02*
X160320000Y-100310000D01*
X158360000Y-123390000D02*
X161830000Y-119920000D01*
X154810000Y-81620000D02*
X154810000Y-99610000D01*
X142102500Y-101372500D02*
X138290000Y-105185000D01*
X154260000Y-76330000D02*
X154810000Y-76880000D01*
X154810000Y-76880000D02*
X154810000Y-81620000D01*
X156872500Y-100667500D02*
X156872500Y-101672500D01*
X128355579Y-96620000D02*
X123397500Y-96620000D01*
X156572500Y-101372500D02*
X142102500Y-101372500D01*
X156872500Y-101672500D02*
X156572500Y-101372500D01*
X132890000Y-105240000D02*
X134053600Y-104076400D01*
X134053600Y-102318021D02*
X128355579Y-96620000D01*
X133045000Y-105185000D02*
X132890000Y-105340000D01*
X161830000Y-119920000D02*
X161830000Y-101820000D01*
X154260000Y-72230000D02*
X154260000Y-76330000D01*
%TO.N,+3V3*%
X123397500Y-94080000D02*
X121870000Y-95607500D01*
X129725000Y-94080000D02*
X138290000Y-102645000D01*
X152270000Y-81620000D02*
X152270000Y-88665000D01*
X152185000Y-76330000D02*
X152185000Y-81535000D01*
X123397500Y-94080000D02*
X129725000Y-94080000D01*
X152185000Y-81535000D02*
X152270000Y-81620000D01*
X121870000Y-99400000D02*
X125270000Y-102800000D01*
X121870000Y-95607500D02*
X121870000Y-99400000D01*
X152270000Y-88665000D02*
X138290000Y-102645000D01*
%TO.N,Net-(J1-Pin_2)*%
X157822500Y-103547500D02*
X157822500Y-108482500D01*
X157822500Y-108482500D02*
X158020000Y-108680000D01*
%TO.N,Net-(Q1-B)*%
X160022000Y-117318000D02*
X158500000Y-118840000D01*
X160022000Y-102922000D02*
X160022000Y-117318000D01*
X158772500Y-101672500D02*
X160022000Y-102922000D01*
%TO.N,Net-(D1-A)*%
X156500000Y-118840000D02*
X152860000Y-122480000D01*
X125270000Y-105340000D02*
X125270000Y-113620000D01*
X152860000Y-122480000D02*
X143550000Y-122480000D01*
X125270000Y-113620000D02*
X136600000Y-124950000D01*
X143550000Y-122480000D02*
X141080000Y-124950000D01*
X136600000Y-124950000D02*
X141080000Y-124950000D01*
%TO.N,Net-(D1-K)*%
X156360000Y-123390000D02*
X154860000Y-124890000D01*
X154830000Y-124950000D02*
X143880000Y-124950000D01*
X154860000Y-124890000D02*
X154860000Y-124920000D01*
X154860000Y-124920000D02*
X154830000Y-124950000D01*
%TO.N,/+5V*%
X152185000Y-72230000D02*
X153372500Y-73417500D01*
X153372500Y-81452500D02*
X153540000Y-81620000D01*
X153372500Y-73417500D02*
X153372500Y-81452500D01*
%TD*%
M02*
