%TF.GenerationSoftware,KiCad,Pcbnew,8.0.9-unknown-202502181922~c4009544a9~ubuntu24.04.1*%
%TF.CreationDate,2025-04-06T14:19:14-04:00*%
%TF.ProjectId,Acceleration Logger,41636365-6c65-4726-9174-696f6e204c6f,rev?*%
%TF.SameCoordinates,Original*%
%TF.FileFunction,Copper,L1,Top*%
%TF.FilePolarity,Positive*%
%FSLAX46Y46*%
G04 Gerber Fmt 4.6, Leading zero omitted, Abs format (unit mm)*
G04 Created by KiCad (PCBNEW 8.0.9-unknown-202502181922~c4009544a9~ubuntu24.04.1) date 2025-04-06 14:19:14*
%MOMM*%
%LPD*%
G01*
G04 APERTURE LIST*
G04 Aperture macros list*
%AMRoundRect*
0 Rectangle with rounded corners*
0 $1 Rounding radius*
0 $2 $3 $4 $5 $6 $7 $8 $9 X,Y pos of 4 corners*
0 Add a 4 corners polygon primitive as box body*
4,1,4,$2,$3,$4,$5,$6,$7,$8,$9,$2,$3,0*
0 Add four circle primitives for the rounded corners*
1,1,$1+$1,$2,$3*
1,1,$1+$1,$4,$5*
1,1,$1+$1,$6,$7*
1,1,$1+$1,$8,$9*
0 Add four rect primitives between the rounded corners*
20,1,$1+$1,$2,$3,$4,$5,0*
20,1,$1+$1,$4,$5,$6,$7,0*
20,1,$1+$1,$6,$7,$8,$9,0*
20,1,$1+$1,$8,$9,$2,$3,0*%
G04 Aperture macros list end*
%TA.AperFunction,SMDPad,CuDef*%
%ADD10RoundRect,0.250000X-0.350000X-0.450000X0.350000X-0.450000X0.350000X0.450000X-0.350000X0.450000X0*%
%TD*%
%TA.AperFunction,SMDPad,CuDef*%
%ADD11RoundRect,0.250000X-0.337500X-0.475000X0.337500X-0.475000X0.337500X0.475000X-0.337500X0.475000X0*%
%TD*%
%TA.AperFunction,ComponentPad*%
%ADD12R,2.000000X1.600000*%
%TD*%
%TA.AperFunction,ComponentPad*%
%ADD13O,2.000000X1.600000*%
%TD*%
%TA.AperFunction,ComponentPad*%
%ADD14C,1.524000*%
%TD*%
%TA.AperFunction,ComponentPad*%
%ADD15R,1.524000X1.524000*%
%TD*%
%TA.AperFunction,ComponentPad*%
%ADD16R,1.727200X1.727200*%
%TD*%
%TA.AperFunction,ComponentPad*%
%ADD17O,1.727200X1.727200*%
%TD*%
%TA.AperFunction,ComponentPad*%
%ADD18R,1.050000X1.500000*%
%TD*%
%TA.AperFunction,ComponentPad*%
%ADD19O,1.050000X1.500000*%
%TD*%
%TA.AperFunction,SMDPad,CuDef*%
%ADD20RoundRect,0.250000X0.375000X0.625000X-0.375000X0.625000X-0.375000X-0.625000X0.375000X-0.625000X0*%
%TD*%
%TA.AperFunction,SMDPad,CuDef*%
%ADD21RoundRect,0.250000X0.350000X0.450000X-0.350000X0.450000X-0.350000X-0.450000X0.350000X-0.450000X0*%
%TD*%
%TA.AperFunction,SMDPad,CuDef*%
%ADD22RoundRect,0.150000X-0.150000X0.587500X-0.150000X-0.587500X0.150000X-0.587500X0.150000X0.587500X0*%
%TD*%
%TA.AperFunction,Conductor*%
%ADD23C,0.200000*%
%TD*%
%TA.AperFunction,Conductor*%
%ADD24C,0.750000*%
%TD*%
G04 APERTURE END LIST*
D10*
%TO.P,R2,1*%
%TO.N,Net-(D1-A)*%
X156440000Y-119460000D03*
%TO.P,R2,2*%
%TO.N,Net-(Q1-B)*%
X158440000Y-119460000D03*
%TD*%
D11*
%TO.P,C1,1*%
%TO.N,/+5V*%
X153835000Y-85600000D03*
%TO.P,C1,2*%
%TO.N,Earth*%
X155910000Y-85600000D03*
%TD*%
%TO.P,C2,1*%
%TO.N,+3V3*%
X152185000Y-76330000D03*
%TO.P,C2,2*%
%TO.N,Earth*%
X154260000Y-76330000D03*
%TD*%
D12*
%TO.P,DISP1,1,Gnd*%
%TO.N,Earth*%
X123397500Y-96620000D03*
D13*
%TO.P,DISP1,2,Vcc*%
%TO.N,+3V3*%
X123397500Y-94080000D03*
%TO.P,DISP1,3,SCL*%
%TO.N,Net-(DISP1-SCL)*%
X123397500Y-91540000D03*
%TO.P,DISP1,4,SDA*%
%TO.N,/SDA*%
X123397500Y-89000000D03*
%TD*%
D14*
%TO.P,J2,1,VBus*%
%TO.N,/+5V*%
X146430000Y-82970000D03*
%TO.P,J2,2,D-*%
%TO.N,unconnected-(J2-D--Pad2)*%
X143890000Y-82970000D03*
%TO.P,J2,3,D+*%
%TO.N,unconnected-(J2-D+-Pad3)*%
X141350000Y-82970000D03*
%TO.P,J2,4,ID*%
%TO.N,unconnected-(J2-ID-Pad4)*%
X138810000Y-82970000D03*
%TO.P,J2,5,Gnd*%
%TO.N,Earth*%
X136270000Y-82970000D03*
%TO.P,J2,6*%
%TO.N,N/C*%
X136030000Y-74970000D03*
%TO.P,J2,7*%
X147030000Y-74970000D03*
%TD*%
D10*
%TO.P,R1,1*%
%TO.N,Net-(D1-K)*%
X156360000Y-123390000D03*
%TO.P,R1,2*%
%TO.N,Earth*%
X158360000Y-123390000D03*
%TD*%
D15*
%TO.P,U2,1,Vcc*%
%TO.N,+3V3*%
X138290000Y-102645000D03*
D14*
%TO.P,U2,2,Gnd*%
%TO.N,Earth*%
X138290000Y-105185000D03*
%TO.P,U2,3,SCL*%
%TO.N,Net-(DISP1-SCL)*%
X138290000Y-107725000D03*
%TO.P,U2,4,SDA*%
%TO.N,/SDA*%
X138290000Y-110265000D03*
%TO.P,U2,5,XDA*%
%TO.N,unconnected-(U2-XDA-Pad5)*%
X138290000Y-112805000D03*
%TO.P,U2,6,XCL*%
%TO.N,unconnected-(U2-XCL-Pad6)*%
X138290000Y-115345000D03*
%TO.P,U2,7,AD0*%
%TO.N,unconnected-(U2-AD0-Pad7)*%
X138290000Y-117885000D03*
%TO.P,U2,8,INT*%
%TO.N,Net-(U1-GPIO3{slash}U0RXD)*%
X138290000Y-120425000D03*
%TD*%
D16*
%TO.P,U1,1,GND*%
%TO.N,Earth*%
X132890000Y-105340000D03*
D17*
%TO.P,U1,2,U0TXD/GPIO1*%
%TO.N,Net-(D1-A)*%
X132890000Y-102800000D03*
%TO.P,U1,3,U1TXD/GPIO2*%
%TO.N,Net-(DISP1-SCL)*%
X130350000Y-105340000D03*
%TO.P,U1,4,CH_EN/CH_PD*%
%TO.N,unconnected-(U1-CH_EN{slash}CH_PD-Pad4)*%
X130350000Y-102800000D03*
%TO.P,U1,5,GPIO0*%
%TO.N,/SDA*%
X127810000Y-105340000D03*
%TO.P,U1,6,RST*%
%TO.N,unconnected-(U1-RST-Pad6)*%
X127810000Y-102800000D03*
%TO.P,U1,7,GPIO3/U0RXD*%
%TO.N,Net-(U1-GPIO3{slash}U0RXD)*%
X125270000Y-105340000D03*
%TO.P,U1,8,VCC*%
%TO.N,+3V3*%
X125270000Y-102800000D03*
%TD*%
D18*
%TO.P,U3,1,GND*%
%TO.N,Earth*%
X154810000Y-81620000D03*
D19*
%TO.P,U3,2,VI*%
%TO.N,/+5V*%
X153540000Y-81620000D03*
%TO.P,U3,3,VO*%
%TO.N,+3V3*%
X152270000Y-81620000D03*
%TD*%
D20*
%TO.P,D1,1,K*%
%TO.N,Net-(D1-K)*%
X143880000Y-124950000D03*
%TO.P,D1,2,A*%
%TO.N,Net-(D1-A)*%
X141080000Y-124950000D03*
%TD*%
D21*
%TO.P,R3,1*%
%TO.N,+3V3*%
X158490000Y-115720000D03*
%TO.P,R3,2*%
%TO.N,Net-(D1-A)*%
X156490000Y-115720000D03*
%TD*%
D15*
%TO.P,J1,1,Pin_1*%
%TO.N,Net-(J1-Pin_1)*%
X158020000Y-112180000D03*
D14*
%TO.P,J1,2,Pin_2*%
%TO.N,Earth*%
X158020000Y-108680000D03*
%TD*%
D22*
%TO.P,Q1,1,G*%
%TO.N,Net-(Q1-B)*%
X158772500Y-101672500D03*
%TO.P,Q1,2,S*%
%TO.N,Earth*%
X156872500Y-101672500D03*
%TO.P,Q1,3,D*%
%TO.N,Net-(J1-Pin_1)*%
X157822500Y-103547500D03*
%TD*%
D23*
%TO.N,Net-(DISP1-SCL)*%
X132735000Y-107725000D02*
X138290000Y-107725000D01*
X130350000Y-105340000D02*
X132735000Y-107725000D01*
%TO.N,/SDA*%
X132735000Y-110265000D02*
X138290000Y-110265000D01*
X127810000Y-105340000D02*
X132735000Y-110265000D01*
%TO.N,Earth*%
X158360000Y-123390000D02*
X161695000Y-120055000D01*
X161695000Y-120055000D02*
X161695000Y-91385000D01*
D24*
X156872500Y-86562500D02*
X155910000Y-85600000D01*
D23*
X132890000Y-105340000D02*
X132890000Y-105240000D01*
X138290000Y-105185000D02*
X133045000Y-105185000D01*
X161695000Y-91385000D02*
X155910000Y-85600000D01*
D24*
X158020000Y-108680000D02*
X155440000Y-106100000D01*
X155440000Y-106100000D02*
X155440000Y-105340000D01*
D23*
X134053600Y-104076400D02*
X134053600Y-102318021D01*
X154260000Y-76330000D02*
X154810000Y-76880000D01*
X154810000Y-76880000D02*
X154810000Y-81620000D01*
X128355579Y-96620000D02*
X123397500Y-96620000D01*
D24*
X155440000Y-103105000D02*
X156872500Y-101672500D01*
X155440000Y-105340000D02*
X155440000Y-103210000D01*
D23*
X132890000Y-105240000D02*
X134053600Y-104076400D01*
D24*
X154810000Y-81620000D02*
X155210000Y-81620000D01*
X155440000Y-103210000D02*
X155440000Y-103105000D01*
D23*
X134053600Y-102318021D02*
X128355579Y-96620000D01*
D24*
X155210000Y-81620000D02*
X155910000Y-82320000D01*
D23*
X133045000Y-105185000D02*
X132890000Y-105340000D01*
D24*
X155910000Y-82320000D02*
X155910000Y-85600000D01*
X156872500Y-101672500D02*
X156872500Y-86562500D01*
D23*
%TO.N,+3V3*%
X123397500Y-94080000D02*
X121870000Y-95607500D01*
X129725000Y-94080000D02*
X138290000Y-102645000D01*
X152270000Y-81620000D02*
X152270000Y-88665000D01*
X145415000Y-102645000D02*
X138290000Y-102645000D01*
X152185000Y-76330000D02*
X152185000Y-81535000D01*
X158490000Y-115720000D02*
X145415000Y-102645000D01*
X123397500Y-94080000D02*
X129725000Y-94080000D01*
X152185000Y-81535000D02*
X152270000Y-81620000D01*
X121870000Y-99400000D02*
X125270000Y-102800000D01*
X121870000Y-95607500D02*
X121870000Y-99400000D01*
X152270000Y-88665000D02*
X138290000Y-102645000D01*
D24*
%TO.N,Net-(J1-Pin_1)*%
X157822500Y-105602500D02*
X160620000Y-108400000D01*
X160620000Y-108400000D02*
X160620000Y-109580000D01*
D23*
X158490000Y-112650000D02*
X158020000Y-112180000D01*
D24*
X157822500Y-103547500D02*
X157822500Y-105602500D01*
X160620000Y-109580000D02*
X158020000Y-112180000D01*
D23*
%TO.N,Net-(Q1-B)*%
X158772500Y-101672500D02*
X161295000Y-104195000D01*
X161295000Y-104195000D02*
X161295000Y-116605000D01*
X161295000Y-116605000D02*
X158440000Y-119460000D01*
%TO.N,Net-(D1-A)*%
X156490000Y-119410000D02*
X156440000Y-119460000D01*
X131720000Y-103970000D02*
X132890000Y-102800000D01*
X156500000Y-118840000D02*
X152860000Y-122480000D01*
X124106400Y-112466400D02*
X124106400Y-104858021D01*
X141080000Y-124950000D02*
X136590000Y-124950000D01*
X136590000Y-124950000D02*
X124106400Y-112466400D01*
X152860000Y-122480000D02*
X143550000Y-122480000D01*
X156490000Y-115720000D02*
X156490000Y-119410000D01*
X143550000Y-122480000D02*
X141080000Y-124950000D01*
X124106400Y-104858021D02*
X124994421Y-103970000D01*
X124994421Y-103970000D02*
X131720000Y-103970000D01*
%TO.N,Net-(D1-K)*%
X156360000Y-123390000D02*
X154860000Y-124890000D01*
X154830000Y-124950000D02*
X143880000Y-124950000D01*
X154860000Y-124890000D02*
X154860000Y-124920000D01*
X154860000Y-124920000D02*
X154830000Y-124950000D01*
%TO.N,Net-(U1-GPIO3{slash}U0RXD)*%
X125270000Y-107405000D02*
X125270000Y-105340000D01*
X138290000Y-120425000D02*
X125270000Y-107405000D01*
%TO.N,/+5V*%
X153540000Y-85305000D02*
X153835000Y-85600000D01*
X153540000Y-81620000D02*
X153540000Y-85305000D01*
%TD*%
M02*
